<svg width="24" height="24" viewBox="0 0 24 24" fill="none" xmlns="http://www.w3.org/2000/svg">
<path d="M16.6 17.5C16.4 17.5 16.1 17.4 16 17.2L12 13.2L8 17.2C7.8 17.4 7.6 17.5 7.4 17.5C7.2 17.5 6.9 17.4 6.8 17.2C6.6 17 6.5 16.8 6.5 16.6C6.5 16.4 6.6 16.1 6.8 16L10.8 12L6.8 7.99999C6.4 7.59999 6.4 7.09999 6.8 6.69999C7 6.49999 7.2 6.39999 7.4 6.39999C7.6 6.39999 7.9 6.49999 8 6.69999L12 10.7L16 6.69999C16.2 6.49999 16.4 6.39999 16.6 6.39999C16.8 6.39999 17.1 6.49999 17.2 6.69999C17.6 7.09999 17.6 7.59999 17.2 7.99999L13.2 12L17.2 16C17.6 16.4 17.6 16.9 17.2 17.3C17.1 17.4 16.9 17.5 16.6 17.5Z" fill="white"/>
</svg>
