<svg width="378" height="398" viewBox="0 0 378 398" fill="none" xmlns="http://www.w3.org/2000/svg">
<path fill-rule="evenodd" clip-rule="evenodd" d="M301.367 279.289C355.105 206.531 356.932 116.722 305.448 78.6967C303.334 77.1357 301.163 75.6862 298.94 74.3467L299.111 74.3403L297.799 73.671C295.15 72.132 292.429 70.7464 289.643 69.5117L274.974 62.0307L275.994 64.7828C225.363 51.7621 159.356 81.429 114.925 141.586C61.1867 214.345 59.3598 304.153 110.844 342.179C162.329 380.204 247.629 352.048 301.367 279.289Z" fill="url(#paint0_linear_865_2233)"/>
<ellipse cx="188.558" cy="198.524" rx="162.089" ry="114.696" transform="rotate(-53.5511 188.558 198.524)" fill="url(#paint1_linear_865_2233)"/>
<path fill-rule="evenodd" clip-rule="evenodd" d="M83.1941 230.847C81.792 258.891 90.4676 282.892 109.116 296.665C127.765 310.439 153.256 311.673 179.647 302.086C206.022 292.505 233.053 272.177 254.382 243.3C275.71 214.423 287.189 182.609 288.591 154.583C289.993 126.538 281.317 102.538 262.668 88.7646C244.019 74.9909 218.529 73.7568 192.137 83.344C165.762 92.9252 138.731 113.253 117.403 142.13C96.0748 171.007 84.5953 202.821 83.1941 230.847ZM79.1991 230.648C80.6448 201.731 92.4554 169.175 114.186 139.754C135.916 110.332 163.559 89.4699 190.772 79.5844C217.968 69.7049 244.979 70.7272 265.045 85.547C285.11 100.367 294.03 125.883 292.586 154.782C291.14 183.699 279.329 216.255 257.599 245.676C235.869 275.098 208.226 295.96 181.013 305.846C153.817 315.725 126.805 314.703 106.74 299.883C86.6747 285.063 77.7542 259.547 79.1991 230.648Z" fill="#7989EB"/>
<path d="M159.679 197.896L152.334 178.748L186.445 145.457L193.79 164.605L159.679 197.896ZM181.717 255.34L189.062 274.488L223.173 241.198C246.723 218.215 257.591 178.153 247.45 151.715C237.308 125.276 209.997 122.475 186.446 145.457L193.792 164.606C207.921 150.816 224.309 152.497 230.394 168.361C236.479 184.223 229.958 208.261 215.829 222.05L215.828 222.049L181.717 255.34ZM205.401 179.593L212.747 198.742L178.636 232.033L171.29 212.884L205.401 179.593ZM183.365 122.147L176.02 102.999L141.907 136.29L149.253 155.438L183.365 122.147ZM117.63 225.776C127.772 252.214 155.084 255.015 178.633 232.032L171.288 212.884C157.158 226.673 140.771 224.992 134.687 209.129C128.601 193.266 135.123 169.228 149.253 155.438L141.907 136.29C118.358 159.273 107.488 199.337 117.63 225.776Z" fill="#FFC303"/>
<path d="M159.679 197.896L152.334 178.748L144.67 175.668L152.015 194.816L159.679 197.896Z" fill="#D82525"/>
<path d="M152.333 178.748L186.445 145.457L178.781 142.377L144.67 175.668L152.333 178.748Z" fill="#D82525"/>
<path d="M186.444 145.457L193.79 164.605L186.126 161.526L178.781 142.377L186.444 145.457Z" fill="#D82525"/>
<path d="M181.717 255.34L189.062 274.488L181.399 271.409L174.053 252.26L181.717 255.34Z" fill="#D82525"/>
<path d="M223.172 241.198L215.509 238.119L215.509 238.118L223.172 241.198Z" fill="#D82525"/>
<path fill-rule="evenodd" clip-rule="evenodd" d="M222.887 129.265L222.884 129.264L220.714 128.392L222.736 129.191L222.736 129.191L222.737 129.191L230.4 132.272L230.4 132.272L232.36 133.234L226.688 130.955L226.686 130.955L232.36 133.235L234.25 134.359L234.252 134.36L236.071 135.647L228.407 132.567L226.589 131.28L226.587 131.28L224.89 130.27L218.632 127.755L220.714 128.392L222.887 129.265ZM237.812 137.096L236.071 135.648L228.407 132.567L230.148 134.015L230.148 134.015L231.807 135.625L231.807 135.625L233.381 137.395L241.045 140.475L239.471 138.705L239.471 138.705L237.812 137.096L237.812 137.096ZM241.045 140.475L242.527 142.405L242.527 142.405L243.913 144.495L243.913 144.495L245.199 146.742L245.2 146.743L246.379 149.149L238.716 146.069L237.535 143.663L237.534 143.663L236.249 141.414L236.249 141.414L234.863 139.325L233.381 137.395L241.045 140.475ZM246.379 149.149L247.45 151.715L247.45 151.715L248.394 154.402L248.394 154.402L249.201 157.174L241.536 154.095L240.731 151.323L240.731 151.323L239.786 148.634L239.786 148.634L238.716 146.069L246.379 149.149ZM242.742 159.864L242.207 156.944L242.206 156.944L241.536 154.095L249.2 157.174L249.87 160.024L249.87 160.024L250.405 162.943L242.742 159.864ZM243.416 165.887L243.144 162.847L243.144 162.847L242.741 159.864L250.405 162.943L250.808 165.927L250.808 165.927L251.08 168.967L243.416 165.887ZM243.575 172.109L243.56 168.977L243.559 168.976L243.416 165.887L251.08 168.967L251.223 172.057L251.224 172.057L251.239 175.19L251.13 178.359L243.466 175.278L243.575 172.109ZM251.129 178.359L250.896 181.557L250.897 181.557L250.542 184.779L250.542 184.779L250.068 188.015L242.404 184.935L242.878 181.698L242.878 181.698L243.233 178.477L243.233 178.477L243.465 175.278L251.129 178.359ZM241.104 191.43L241.812 188.182L241.812 188.182L242.404 184.936L250.068 188.015L249.475 191.261L249.476 191.261L248.768 194.509L248.768 194.509L247.947 197.752L247.946 197.752L247.011 200.985L239.347 197.904L240.282 194.673L240.282 194.673L241.104 191.43L241.104 191.43ZM245.967 204.198L247.011 200.985L239.347 197.904L238.303 201.118L238.303 201.118L237.149 204.306L237.149 204.306L235.889 207.462L243.553 210.543L244.813 207.386L244.813 207.386L245.967 204.198L245.967 204.198ZM234.523 210.58L233.056 213.652L231.486 216.672L239.15 219.751L240.719 216.731L242.188 213.66L242.188 213.66L243.552 210.543L235.888 207.462L234.523 210.58L234.523 210.58ZM239.15 219.751L237.481 222.711L237.481 222.711L235.715 225.605L228.052 222.526L229.817 219.631L229.817 219.631L231.486 216.672L239.15 219.751ZM233.853 228.427L235.715 225.605L228.051 222.526L226.189 225.346L233.853 228.427ZM231.897 231.167L231.897 231.168L229.85 233.823L229.85 233.823L227.712 236.384L220.048 233.304L222.186 230.742L222.186 230.742L224.233 228.088L224.233 228.088L226.189 225.346L233.853 228.427L231.897 231.167ZM227.712 236.384L225.486 238.845L225.486 238.845L223.173 241.199L223.172 241.199L189.063 274.488L181.399 271.409L215.509 238.118L215.51 238.119L217.822 235.766L217.822 235.765L220.048 233.304L227.712 236.384Z" fill="url(#paint2_linear_865_2233)"/>
<path d="M226.296 130.835L224.16 130.362L216.497 127.282L218.632 127.755L226.296 130.835Z" fill="#D82525"/>
<path d="M224.161 130.361L221.977 130.053L214.312 126.973L216.497 127.282L224.161 130.361Z" fill="#D82525"/>
<path d="M221.976 130.052L219.746 129.909L212.083 126.829L214.312 126.973L221.976 130.052Z" fill="#D82525"/>
<path d="M219.746 129.909L217.477 129.931L209.813 126.85L212.082 126.829L219.746 129.909Z" fill="#D82525"/>
<path d="M217.477 129.931L215.172 130.117L207.508 127.037L209.813 126.85L217.477 129.931Z" fill="#D82525"/>
<path d="M215.172 130.117L212.837 130.47L205.173 127.39L207.508 127.037L215.172 130.117Z" fill="#D82525"/>
<path d="M212.837 130.471L210.475 130.99L202.811 127.91L205.173 127.39L212.837 130.471Z" fill="#D82525"/>
<path d="M210.476 130.989L208.092 131.677L200.428 128.596L202.811 127.91L210.476 130.989Z" fill="#D82525"/>
<path d="M208.092 131.677L205.692 132.531L198.028 129.451L200.428 128.596L208.092 131.677Z" fill="#D82525"/>
<path d="M205.692 132.531L203.279 133.554L195.615 130.474L198.028 129.451L205.692 132.531Z" fill="#D82525"/>
<path d="M203.28 133.554L200.861 134.744L193.197 131.665L195.616 130.473L203.28 133.554Z" fill="#D82525"/>
<path d="M200.86 134.745L198.438 136.104L190.774 133.025L193.197 131.665L200.86 134.745Z" fill="#D82525"/>
<path d="M198.438 136.105L196.017 137.634L188.353 134.555L190.774 133.025L198.438 136.105Z" fill="#D82525"/>
<path d="M196.018 137.634L193.604 139.334L185.94 136.254L188.354 134.554L196.018 137.634Z" fill="#D82525"/>
<path d="M193.603 139.334L191.201 141.204L183.537 138.123L185.94 136.254L193.603 139.334Z" fill="#D82525"/>
<path d="M191.2 141.204L188.813 143.245L181.149 140.165L183.536 138.124L191.2 141.204Z" fill="#D82525"/>
<path d="M188.814 143.245L186.447 145.457L178.783 142.378L181.15 140.165L188.814 143.245Z" fill="#D82525"/>
<path fill-rule="evenodd" clip-rule="evenodd" d="M193.792 164.606L193.79 164.605L159.679 197.896L152.015 194.816L186.127 161.525L186.128 161.526L178.783 142.378L186.446 145.457L191.035 157.42L191.871 156.832L191.871 156.831L193.323 155.914L194.777 155.099L194.777 155.099L196.228 154.384L203.892 157.464L202.44 158.178L202.44 158.178L200.987 158.995L199.535 159.912L199.535 159.912L198.086 160.932L198.086 160.932L196.645 162.054L196.645 162.054L195.212 163.278L192.931 162.361L192.931 162.361L195.212 163.278L193.792 164.606L193.792 164.606ZM205.339 156.85L203.893 157.464L196.229 154.384L197.675 153.77L197.675 153.77L199.115 153.257L199.115 153.257L200.545 152.845L200.545 152.845L201.961 152.534L209.625 155.614L208.209 155.925L208.209 155.925L206.779 156.337L206.779 156.338L205.339 156.85L205.339 156.85ZM211.027 155.401L209.626 155.614L201.962 152.534L203.363 152.322L211.027 155.401ZM204.746 152.209L206.107 152.197L206.108 152.197L206.108 152.197L207.445 152.284L215.11 155.363L213.772 155.276L213.772 155.276L213.772 155.276L212.411 155.29L212.41 155.29L211.027 155.401L203.363 152.322L204.746 152.209L204.746 152.209ZM216.42 155.549L215.11 155.363L207.446 152.283L208.756 152.468L208.757 152.468L210.038 152.753L210.043 152.755L211.287 153.135L218.95 156.214L217.702 155.832L217.699 155.831L216.421 155.549L216.42 155.549Z" fill="url(#paint3_linear_865_2233)"/>
<path d="M218.95 156.214L220.164 156.694L212.5 153.615L211.287 153.135L218.95 156.214Z" fill="#D82525"/>
<path d="M220.164 156.694L221.34 157.272L213.675 154.192L212.5 153.614L220.164 156.694Z" fill="#D82525"/>
<path d="M221.34 157.272L222.474 157.947L214.811 154.867L213.675 154.192L221.34 157.272Z" fill="#D82525"/>
<path d="M222.475 157.947L223.567 158.72L215.903 155.639L214.811 154.867L222.475 157.947Z" fill="#D82525"/>
<path d="M223.566 158.72L224.611 159.589L216.947 156.508L215.902 155.639L223.566 158.72Z" fill="#D82525"/>
<path d="M224.611 159.589L225.607 160.554L217.943 157.475L216.947 156.508L224.611 159.589Z" fill="#D82525"/>
<path d="M225.606 160.554L226.55 161.617L218.887 158.537L217.943 157.475L225.606 160.554Z" fill="#D82525"/>
<path d="M226.551 161.616L227.441 162.774L219.777 159.694L218.887 158.537L226.551 161.616Z" fill="#D82525"/>
<path d="M227.44 162.774L228.271 164.028L220.607 160.948L219.776 159.695L227.44 162.774Z" fill="#D82525"/>
<path d="M228.271 164.028L229.043 165.377L221.379 162.297L220.607 160.948L228.271 164.028Z" fill="#D82525"/>
<path d="M229.044 165.377L229.752 166.821L222.088 163.741L221.38 162.297L229.044 165.377Z" fill="#D82525"/>
<path d="M229.752 166.821L230.394 168.361L222.73 165.28L222.088 163.741L229.752 166.821Z" fill="#D82525"/>
<path d="M230.394 168.361L230.961 169.973L223.297 166.893L222.73 165.28L230.394 168.361Z" fill="#D82525"/>
<path d="M230.961 169.973L231.445 171.636L223.781 168.556L223.297 166.893L230.961 169.973Z" fill="#D82525"/>
<path d="M231.444 171.636L231.846 173.346L224.182 170.266L223.78 168.556L231.444 171.636Z" fill="#D82525"/>
<path d="M231.846 173.347L232.167 175.098L224.504 172.018L224.182 170.266L231.846 173.347Z" fill="#D82525"/>
<path d="M232.168 175.097L232.409 176.888L224.745 173.808L224.504 172.018L232.168 175.097Z" fill="#D82525"/>
<path d="M232.408 176.888L232.572 178.712L224.908 175.631L224.745 173.808L232.408 176.888Z" fill="#D82525"/>
<path d="M232.572 178.712L232.657 180.565L224.994 177.486L224.908 175.631L232.572 178.712Z" fill="#D82525"/>
<path d="M232.658 180.565L232.668 182.445L225.004 179.365L224.994 177.485L232.658 180.565Z" fill="#D82525"/>
<path d="M232.668 182.445L232.602 184.347L224.938 181.266L225.004 179.365L232.668 182.445Z" fill="#D82525"/>
<path d="M232.601 184.347L232.462 186.266L224.798 183.185L224.937 181.267L232.601 184.347Z" fill="#D82525"/>
<path d="M232.462 186.266L232.249 188.199L224.585 185.118L224.798 183.185L232.462 186.266Z" fill="#D82525"/>
<path d="M232.249 188.199L231.964 190.141L224.3 187.06L224.585 185.118L232.249 188.199Z" fill="#D82525"/>
<path d="M231.964 190.141L231.609 192.088L223.945 189.008L224.3 187.06L231.964 190.141Z" fill="#D82525"/>
<path d="M231.611 192.088L231.185 194.037L223.521 190.956L223.947 189.007L231.611 192.088Z" fill="#D82525"/>
<path d="M231.185 194.037L230.692 195.983L223.028 192.902L223.521 190.957L231.185 194.037Z" fill="#D82525"/>
<path d="M230.692 195.983L230.131 197.922L222.467 194.841L223.028 192.902L230.692 195.983Z" fill="#D82525"/>
<path d="M230.131 197.922L229.504 199.85L221.84 196.77L222.467 194.841L230.131 197.922Z" fill="#D82525"/>
<path d="M229.504 199.85L228.811 201.763L221.148 198.683L221.84 196.77L229.504 199.85Z" fill="#D82525"/>
<path d="M228.811 201.763L228.056 203.656L220.392 200.577L221.148 198.683L228.811 201.763Z" fill="#D82525"/>
<path d="M228.056 203.656L227.236 205.527L219.572 202.447L220.392 200.577L228.056 203.656Z" fill="#D82525"/>
<path d="M227.237 205.527L226.356 207.37L218.692 204.29L219.573 202.447L227.237 205.527Z" fill="#D82525"/>
<path d="M226.356 207.37L225.415 209.182L217.75 206.102L218.692 204.29L226.356 207.37Z" fill="#D82525"/>
<path d="M225.415 209.181L224.413 210.958L216.749 207.878L217.75 206.102L225.415 209.181Z" fill="#D82525"/>
<path d="M224.413 210.958L223.353 212.694L215.689 209.615L216.749 207.878L224.413 210.958Z" fill="#D82525"/>
<path d="M223.353 212.694L222.236 214.387L214.572 211.306L215.689 209.615L223.353 212.694Z" fill="#D82525"/>
<path d="M222.236 214.387L221.063 216.032L213.399 212.952L214.572 211.306L222.236 214.387Z" fill="#D82525"/>
<path d="M221.063 216.032L219.834 217.625L212.17 214.544L213.399 212.952L221.063 216.032Z" fill="#D82525"/>
<path d="M219.834 217.625L218.551 219.161L210.888 216.082L212.17 214.544L219.834 217.625Z" fill="#D82525"/>
<path d="M218.551 219.162L217.217 220.638L209.552 217.558L210.888 216.082L218.551 219.162Z" fill="#D82525"/>
<path d="M217.217 220.638L215.829 222.05L208.165 218.971L209.552 217.558L217.217 220.638Z" fill="#D82525"/>
<path d="M215.828 222.05L208.164 218.969L208.165 218.971L215.828 222.05Z" fill="#D82525"/>
<path d="M215.829 222.049L181.717 255.34L174.053 252.26L208.165 218.969L215.829 222.049Z" fill="#D82525"/>
<path d="M205.401 179.593L212.747 198.742L205.083 195.662L197.738 176.514L205.401 179.593Z" fill="#5965D1"/>
<path d="M178.635 232.034L171.29 212.884L163.626 209.805L170.971 228.953L178.635 232.034Z" fill="#D82525"/>
<path d="M171.29 212.884L205.401 179.593L197.738 176.514L163.626 209.804L171.29 212.884Z" fill="#5965D1"/>
<path d="M183.365 122.147L176.02 102.999L168.354 99.9187L175.7 119.067L183.365 122.147Z" fill="#5965D1"/>
<path d="M176.019 102.999L141.907 136.29L134.243 133.21L168.354 99.9187L176.019 102.999Z" fill="#5965D1"/>
<path d="M141.907 136.29L149.253 155.438L141.589 152.358L134.243 133.209L141.907 136.29Z" fill="#D82525"/>
<path d="M117.63 225.776L118.701 228.34L111.036 225.261L109.966 222.695L117.63 225.776Z" fill="#D82525"/>
<path d="M118.702 228.34L119.882 230.747L112.218 227.667L111.037 225.261L118.702 228.34Z" fill="#D82525"/>
<path d="M119.881 230.747L121.166 232.996L113.502 229.915L112.217 227.667L119.881 230.747Z" fill="#D82525"/>
<path d="M121.166 232.996L122.553 235.085L114.889 232.005L113.502 229.915L121.166 232.996Z" fill="#D82525"/>
<path d="M122.552 235.085L124.034 237.015L116.371 233.935L114.889 232.005L122.552 235.085Z" fill="#D82525"/>
<path d="M124.034 237.015L125.608 238.785L117.944 235.705L116.371 233.935L124.034 237.015Z" fill="#D82525"/>
<path d="M125.609 238.785L127.268 240.394L119.604 237.314L117.945 235.704L125.609 238.785Z" fill="#D82525"/>
<path d="M127.268 240.394L129.009 241.843L121.345 238.762L119.604 237.314L127.268 240.394Z" fill="#D82525"/>
<path d="M129.009 241.843L130.828 243.13L123.164 240.05L121.345 238.762L129.009 241.843Z" fill="#D82525"/>
<path d="M130.829 243.13L132.72 244.255L125.056 241.175L123.165 240.05L130.829 243.13Z" fill="#D82525"/>
<path d="M132.72 244.255L134.679 245.218L127.016 242.138L125.056 241.175L132.72 244.255Z" fill="#D82525"/>
<path d="M134.679 245.218L136.701 246.018L129.038 242.939L127.015 242.138L134.679 245.218Z" fill="#D82525"/>
<path fill-rule="evenodd" clip-rule="evenodd" d="M175.687 224.351L171.288 212.884L163.623 209.804L170.968 228.953L177.34 231.512L178.101 231.818L170.968 228.953L168.602 231.165L168.602 231.165L166.216 233.206L163.813 235.076L163.813 235.076L161.399 236.776L161.399 236.776L158.978 238.305L166.642 241.385L169.063 239.855L169.062 239.855L171.476 238.156L171.476 238.156L173.88 236.286L176.266 234.245L176.266 234.245L178.633 232.032L178.636 232.033L212.747 198.742L205.083 195.662L175.687 224.351ZM138.784 246.655L136.702 246.018L129.038 242.939L131.12 243.575L138.784 246.655ZM140.918 247.128L138.784 246.655L131.12 243.575L133.255 244.048L135.44 244.357L143.104 247.437L140.919 247.128L140.919 247.128L140.918 247.128ZM137.67 244.5L139.939 244.479L147.603 247.56L145.333 247.581L145.333 247.581L143.104 247.436L135.441 244.357L137.67 244.5L137.67 244.5ZM147.603 247.56L149.907 247.372L149.907 247.373L152.243 247.02L152.243 247.02L152.243 247.02L154.605 246.5L154.605 246.5L156.988 245.814L156.988 245.814L159.387 244.959L151.724 241.879L149.324 242.733L149.324 242.733L146.941 243.42L146.941 243.42L144.579 243.939L142.244 244.293L142.244 244.293L139.939 244.479L147.603 247.56ZM161.8 243.936L159.387 244.959L151.724 241.879L154.136 240.856L161.8 243.936ZM161.8 243.936L164.219 242.745L156.556 239.665L154.136 240.856L161.8 243.936ZM166.642 241.385L164.219 242.745L156.556 239.665L158.978 238.305L166.642 241.385Z" fill="url(#paint4_linear_865_2233)"/>
<path d="M171.288 212.884L169.867 214.212L162.203 211.131L163.623 209.804L171.288 212.884Z" fill="#D82525"/>
<path d="M169.867 214.212L168.435 215.436L160.771 212.356L162.203 211.131L169.867 214.212Z" fill="#D82525"/>
<path d="M168.435 215.436L166.993 216.558L159.329 213.478L160.771 212.356L168.435 215.436Z" fill="#D82525"/>
<path d="M166.993 216.558L165.545 217.578L157.881 214.498L159.329 213.478L166.993 216.558Z" fill="#D82525"/>
<path d="M165.544 217.578L164.092 218.496L156.428 215.415L157.88 214.498L165.544 217.578Z" fill="#D82525"/>
<path d="M164.092 218.496L162.639 219.311L154.975 216.232L156.428 215.415L164.092 218.496Z" fill="#D82525"/>
<path d="M162.639 219.311L161.187 220.026L153.523 216.946L154.975 216.232L162.639 219.311Z" fill="#D82525"/>
<path d="M161.188 220.026L159.741 220.64L152.077 217.56L153.524 216.946L161.188 220.026Z" fill="#D82525"/>
<path d="M159.74 220.64L158.3 221.153L150.636 218.072L152.076 217.56L159.74 220.64Z" fill="#D82525"/>
<path d="M158.3 221.153L156.87 221.565L149.206 218.485L150.636 218.072L158.3 221.153Z" fill="#D82525"/>
<path d="M156.87 221.565L155.454 221.877L147.79 218.796L149.206 218.485L156.87 221.565Z" fill="#D82525"/>
<path d="M155.454 221.876L154.052 222.088L146.388 219.008L147.79 218.796L155.454 221.876Z" fill="#D82525"/>
<path d="M154.052 222.088L152.67 222.2L145.005 219.12L146.388 219.008L154.052 222.088Z" fill="#D82525"/>
<path d="M152.67 222.2L151.308 222.213L143.644 219.132L145.005 219.12L152.67 222.2Z" fill="#D82525"/>
<path d="M151.308 222.213L149.97 222.126L142.307 219.047L143.644 219.132L151.308 222.213Z" fill="#D82525"/>
<path d="M149.97 222.126L148.659 221.941L140.996 218.861L142.307 219.047L149.97 222.126Z" fill="#D82525"/>
<path fill-rule="evenodd" clip-rule="evenodd" d="M149.251 155.438L149.251 155.439L149.252 155.439L147.864 156.852L146.528 158.328L138.865 155.248L140.2 153.771L141.587 152.36L141.587 152.359L134.241 133.211L141.906 136.29L146.304 147.756L175.7 119.067L183.365 122.147L149.252 155.438L149.251 155.438ZM147.378 221.657L148.659 221.941L142.495 219.464L142.124 219.201L143.754 219.856L142.62 219.182L141.44 218.707L140.469 217.9L140.469 217.9L139.473 216.935L131.808 213.855L132.804 214.821L132.805 214.821L133.849 215.69L133.851 215.69L134.941 216.462L140.809 218.82L139.716 218.578L139.714 218.577L139.487 218.508L136.076 217.137L137.251 217.715L137.251 217.715L137.263 217.72L144.915 220.795L144.915 220.796L146.13 221.275L144.823 220.75L144.82 220.749L146.13 221.275L147.375 221.656L147.378 221.657ZM138.529 215.873L139.473 216.935L131.809 213.854L130.866 212.794L130.865 212.794L129.976 211.636L129.976 211.635L129.144 210.382L136.807 213.461L137.639 214.715L137.64 214.715L138.528 215.873L138.529 215.873ZM136.808 213.461L136.037 212.113L136.037 212.112L135.328 210.668L134.686 209.13L127.021 206.049L127.665 207.588L127.665 207.588L128.373 209.032L128.374 209.033L129.144 210.382L136.808 213.461ZM134.12 207.516L134.687 209.13L127.022 206.049L126.456 204.437L126.456 204.437L125.972 202.773L133.636 205.853L134.119 207.516L134.12 207.516ZM133.234 204.144L133.636 205.853L125.972 202.773L125.57 201.064L125.569 201.064L125.249 199.312L125.249 199.312L125.007 197.523L132.67 200.602L132.912 202.392L133.233 204.144L133.234 204.144ZM132.671 200.602L132.508 198.777L132.507 198.777L132.422 196.924L124.757 193.844L124.843 195.698L124.844 195.698L125.007 197.522L132.671 200.602ZM132.423 196.924L132.413 195.044L132.413 195.044L132.478 193.142L124.814 190.063L124.748 191.965L124.748 191.965L124.758 193.844L132.423 196.924ZM132.478 193.142L132.618 191.223L132.618 191.223L132.83 189.291L132.83 189.291L133.115 187.348L133.115 187.348L133.47 185.401L133.47 185.401L133.895 183.452L126.231 180.373L125.807 182.322L125.806 182.321L125.45 184.269L125.45 184.269L125.166 186.211L125.166 186.211L124.954 188.144L124.955 188.144L124.815 190.063L132.478 193.142ZM134.388 181.506L133.895 183.452L126.231 180.373L126.725 178.426L126.725 178.426L127.285 176.488L127.285 176.488L127.911 174.56L135.576 177.639L134.949 179.567L134.949 179.567L134.388 181.506L134.388 181.506ZM135.576 177.639L136.268 175.727L136.268 175.727L137.024 173.833L137.024 173.833L137.842 171.963L130.179 168.883L129.36 170.752L129.36 170.753L128.604 172.646L128.604 172.646L127.911 174.56L135.576 177.639ZM138.724 170.12L138.723 170.12L137.843 171.962L130.179 168.883L131.059 167.039L131.059 167.039L131.06 167.039L132.002 165.228L139.666 168.308L138.724 170.12ZM140.667 166.531L139.666 168.307L132.003 165.228L133.003 163.452L133.003 163.452L134.063 161.715L134.063 161.715L135.179 160.023L135.18 160.023L136.353 158.378L144.017 161.458L142.843 163.102L142.843 163.103L141.726 164.795L141.726 164.795L140.667 166.531L140.667 166.531ZM145.246 159.865L144.017 161.458L136.353 158.377L137.582 156.785L137.581 156.785L138.864 155.248L146.528 158.328L145.246 159.865L145.246 159.865Z" fill="url(#paint5_linear_865_2233)"/>
<path d="M141.906 136.29L139.594 138.644L131.93 135.565L134.242 133.211L141.906 136.29Z" fill="#D82525"/>
<path d="M139.593 138.644L137.368 141.106L129.704 138.026L131.93 135.565L139.593 138.644Z" fill="#D82525"/>
<path d="M137.368 141.106L135.23 143.667L127.567 140.587L129.704 138.026L137.368 141.106Z" fill="#D82525"/>
<path d="M135.23 143.667L133.182 146.322L125.519 143.242L127.566 140.587L135.23 143.667Z" fill="#D82525"/>
<path d="M133.183 146.322L131.227 149.063L123.563 145.983L125.519 143.242L133.183 146.322Z" fill="#D82525"/>
<path d="M131.227 149.063L129.365 151.884L121.701 148.804L123.563 145.983L131.227 149.063Z" fill="#D82525"/>
<path d="M129.365 151.884L127.599 154.778L119.935 151.698L121.701 148.805L129.365 151.884Z" fill="#D82525"/>
<path d="M127.598 154.778L125.929 157.738L118.266 154.659L119.935 151.698L127.598 154.778Z" fill="#D82525"/>
<path d="M125.929 157.738L124.36 160.758L116.696 157.678L118.265 154.659L125.929 157.738Z" fill="#D82525"/>
<path d="M124.36 160.758L122.893 163.83L115.229 160.749L116.696 157.677L124.36 160.758Z" fill="#D82525"/>
<path d="M122.892 163.83L121.526 166.947L113.863 163.867L115.228 160.749L122.892 163.83Z" fill="#D82525"/>
<path d="M121.527 166.947L120.267 170.104L112.603 167.023L113.863 163.867L121.527 166.947Z" fill="#D82525"/>
<path d="M120.267 170.104L119.114 173.292L111.45 170.212L112.603 167.023L120.267 170.104Z" fill="#D82525"/>
<path d="M119.113 173.292L118.068 176.505L110.404 173.425L111.449 170.212L119.113 173.292Z" fill="#D82525"/>
<path d="M118.068 176.505L117.134 179.737L109.471 176.657L110.405 173.425L118.068 176.505Z" fill="#D82525"/>
<path d="M117.134 179.737L116.311 182.98L108.648 179.901L109.47 176.657L117.134 179.737Z" fill="#D82525"/>
<path d="M116.311 182.98L115.603 186.228L107.94 183.149L108.648 179.901L116.311 182.98Z" fill="#D82525"/>
<path d="M115.603 186.228L115.011 189.474L107.347 186.395L107.94 183.149L115.603 186.228Z" fill="#D82525"/>
<path d="M115.011 189.474L114.537 192.711L106.873 189.631L107.348 186.395L115.011 189.474Z" fill="#D82525"/>
<path d="M114.538 192.711L114.183 195.932L106.52 192.853L106.874 189.631L114.538 192.711Z" fill="#D82525"/>
<path d="M114.183 195.932L113.95 199.131L106.287 196.051L106.52 192.853L114.183 195.932Z" fill="#D82525"/>
<path d="M113.95 199.131L113.84 202.3L106.177 199.22L106.286 196.051L113.95 199.131Z" fill="#D82525"/>
<path d="M113.84 202.3L113.857 205.433L106.193 202.353L106.177 199.22L113.84 202.3Z" fill="#D82525"/>
<path d="M113.857 205.433L114 208.523L106.336 205.442L106.193 202.353L113.857 205.433Z" fill="#D82525"/>
<path d="M114 208.523L114.271 211.563L106.607 208.483L106.336 205.442L114 208.523Z" fill="#D82525"/>
<path d="M114.271 211.563L114.674 214.546L107.01 211.466L106.607 208.483L114.271 211.563Z" fill="#D82525"/>
<path d="M114.674 214.546L115.209 217.466L107.545 214.386L107.01 211.466L114.674 214.546Z" fill="#D82525"/>
<path d="M115.209 217.466L115.879 220.315L108.215 217.234L107.545 214.386L115.209 217.466Z" fill="#D82525"/>
<path d="M115.88 220.315L116.687 223.087L109.022 220.007L108.216 217.234L115.88 220.315Z" fill="#D82525"/>
<path d="M116.686 223.087L117.63 225.776L109.966 222.695L109.022 220.007L116.686 223.087Z" fill="#D82525"/>
<path d="M152.015 194.816L144.67 175.668L178.781 142.377L186.127 161.526L152.015 194.816ZM174.053 252.261L181.399 271.409L215.509 238.118C239.058 215.135 249.927 175.072 239.786 148.634C229.644 122.196 202.331 119.394 178.783 142.378L186.128 161.526C200.258 147.737 216.645 149.417 222.73 165.28C228.815 181.143 222.294 205.18 208.165 218.971L208.164 218.969L174.053 252.261ZM197.738 176.514L205.083 195.662L170.972 228.953L163.626 209.804L197.738 176.514ZM175.7 119.067L168.355 99.9187L134.243 133.209L141.589 152.358L175.7 119.067ZM109.966 222.695C120.108 249.133 147.42 251.935 170.968 228.953L163.623 209.805C149.493 223.594 133.107 221.913 127.022 206.049C120.936 190.186 127.457 166.149 141.587 152.36L134.242 133.211C110.693 156.193 99.8243 196.257 109.966 222.695Z" fill="white"/>
<defs>
<linearGradient id="paint0_linear_865_2233" x1="321.74" y1="76.1285" x2="197.437" y2="364.078" gradientUnits="userSpaceOnUse">
<stop offset="0.359375" stop-color="#7F90EF"/>
<stop offset="1" stop-color="#27368B"/>
</linearGradient>
<linearGradient id="paint1_linear_865_2233" x1="48.0643" y1="147.127" x2="348.904" y2="224.539" gradientUnits="userSpaceOnUse">
<stop stop-color="#5065E4"/>
<stop offset="1" stop-color="#B9C2F4"/>
</linearGradient>
<linearGradient id="paint2_linear_865_2233" x1="239.263" y1="140.875" x2="140.287" y2="192.597" gradientUnits="userSpaceOnUse">
<stop stop-color="#8798F4"/>
<stop offset="1" stop-color="#28368C"/>
</linearGradient>
<linearGradient id="paint3_linear_865_2233" x1="209.111" y1="138.231" x2="143.177" y2="183.282" gradientUnits="userSpaceOnUse">
<stop stop-color="#8798F4"/>
<stop offset="1" stop-color="#28368C"/>
</linearGradient>
<linearGradient id="paint4_linear_865_2233" x1="208.729" y1="197.711" x2="141.456" y2="262.182" gradientUnits="userSpaceOnUse">
<stop stop-color="#8798F4"/>
<stop offset="1" stop-color="#28368C"/>
</linearGradient>
<linearGradient id="paint5_linear_865_2233" x1="182.884" y1="129.196" x2="105.416" y2="171.217" gradientUnits="userSpaceOnUse">
<stop stop-color="#8798F4"/>
<stop offset="1" stop-color="#28368C"/>
</linearGradient>
</defs>
</svg>
