<svg width="249" height="259" viewBox="0 0 249 259" fill="none" xmlns="http://www.w3.org/2000/svg">
<g opacity="0.5">
<path fill-rule="evenodd" clip-rule="evenodd" d="M66.5904 184.589C29.8378 147.564 21.2825 96.4671 47.4816 70.4607C48.5571 69.393 49.6745 68.3843 50.8311 67.4339L50.7333 67.4445L51.4262 66.9528C52.809 65.853 54.2458 64.8347 55.7322 63.8971L63.4772 58.4009L63.1258 60.0566C90.9295 48.3908 131.079 59.7988 161.466 90.4111C198.218 127.436 206.774 178.533 180.575 204.539C154.375 230.546 103.343 221.614 66.5904 184.589Z" fill="url(#paint0_linear_856_1419)"/>
<ellipse cx="93.486" cy="66.1516" rx="93.486" ry="66.1516" transform="matrix(-0.704493 -0.709711 -0.709711 0.704493 237.018 148.807)" fill="url(#paint1_linear_856_1419)"/>
<path fill-rule="evenodd" clip-rule="evenodd" d="M187.191 138.664C190.343 154.583 187.399 169.064 177.861 178.531C168.323 187.999 153.821 190.836 137.927 187.566C122.04 184.298 104.888 174.942 90.2833 160.229C75.6781 145.516 66.4493 128.295 63.2985 112.385C60.146 96.4666 63.0899 81.986 72.6278 72.5183C82.1656 63.0506 96.6675 60.2136 112.562 63.4835C128.449 66.7516 145.601 76.1073 160.206 90.8206C174.811 105.534 184.04 122.755 187.191 138.664ZM189.152 138.276C185.915 121.929 176.469 104.365 161.625 89.4116C146.782 74.4583 129.288 64.8824 112.965 61.5245C96.6514 58.1684 81.3815 61.0109 71.2188 71.0989C61.0561 81.1869 58.1009 96.4354 61.3366 112.774C64.5739 129.121 74.0204 146.685 88.8638 161.638C103.707 176.591 121.201 186.167 137.524 189.525C153.838 192.881 169.108 190.039 179.27 179.951C189.433 169.863 192.388 154.614 189.152 138.276Z" fill="#7989EB"/>
<path d="M112.051 121.068L103.64 109.175L121.647 100.116L130.057 112.009L112.051 121.068ZM137.284 156.747L145.695 168.641L163.702 159.582L163.703 159.583C176.134 153.329 176.797 134.947 165.184 118.526C153.571 102.105 134.079 93.8627 121.648 100.116L130.059 112.01C137.518 108.258 149.213 113.202 156.18 123.055C163.148 132.908 162.75 143.937 155.292 147.69L155.291 147.688L137.284 156.747ZM140.721 122.771L149.131 134.664L131.125 143.723L122.714 131.83L140.721 122.771ZM115.487 87.0902L107.076 75.1969L89.0696 84.2564L97.4804 96.1497L115.487 87.0902ZM87.5874 125.313C99.2001 141.734 118.692 149.977 131.123 143.723L122.712 131.83C115.254 135.582 103.559 130.636 96.5908 120.784C89.6228 110.931 90.0221 99.9019 97.4804 96.1497L89.0696 84.2564C76.6387 90.5101 75.9747 108.892 87.5874 125.313Z" fill="white"/>
<path d="M112.05 121.068L103.639 109.175L107.649 105.494L116.06 117.387L112.05 121.068Z" fill="#5965D1"/>
<path d="M121.646 100.116L130.057 112.009L134.067 108.328L125.656 96.4344L121.646 100.116Z" fill="#D82525"/>
<path d="M137.283 156.747L145.694 168.641L149.704 164.96L141.294 153.066L137.283 156.747Z" fill="#5965D1"/>
<path fill-rule="evenodd" clip-rule="evenodd" d="M171.086 153.677L171.088 153.676L167.077 157.357L166.031 158.174L166.031 158.174L166.031 158.174L164.908 158.915L164.906 158.917L163.703 159.583L167.713 155.902L168.915 155.237L168.916 155.236L170.041 154.493L170.042 154.493L170.042 154.493L170.052 154.485L172.945 151.829L172.056 152.786L171.086 153.677ZM167.078 157.357L168.046 156.468L172.057 152.786L171.089 153.676L167.078 157.357ZM145.695 168.641L163.702 159.582L167.712 155.901L149.705 164.96L145.695 168.641ZM163.702 159.582L163.703 159.583L167.713 155.902L163.702 159.582Z" fill="url(#paint2_linear_856_1419)"/>
<path d="M168.935 155.51L169.744 154.488L173.755 150.807L172.945 151.829L168.935 155.51Z" fill="#D82525"/>
<path d="M169.745 154.487L170.476 153.403L174.486 149.722L173.755 150.807L169.745 154.487Z" fill="#D82525"/>
<path d="M170.476 153.403L171.127 152.259L175.137 148.578L174.486 149.722L170.476 153.403Z" fill="#D82525"/>
<path d="M171.127 152.259L171.698 151.06L175.709 147.379L175.137 148.578L171.127 152.259Z" fill="#D82525"/>
<path d="M171.699 151.06L172.192 149.808L176.202 146.127L175.709 147.379L171.699 151.06Z" fill="#D82525"/>
<path d="M172.192 149.808L172.605 148.506L176.616 144.825L176.202 146.127L172.192 149.808Z" fill="#D82525"/>
<path d="M172.605 148.506L172.939 147.158L176.949 143.477L176.616 144.825L172.605 148.506Z" fill="#D82525"/>
<path d="M172.938 147.158L173.192 145.767L177.202 142.086L176.949 143.477L172.938 147.158Z" fill="#D82525"/>
<path d="M173.192 145.767L173.366 144.335L177.376 140.655L177.202 142.086L173.192 145.767Z" fill="#D82525"/>
<path d="M173.365 144.335L173.459 142.867L177.469 139.186L177.376 140.654L173.365 144.335Z" fill="#D82525"/>
<path d="M173.459 142.867L173.473 141.364L177.483 137.684L177.47 139.186L173.459 142.867Z" fill="#D82525"/>
<path d="M173.473 141.364L173.406 139.831L177.416 136.15L177.483 137.684L173.473 141.364Z" fill="#D82525"/>
<path d="M173.406 139.831L173.259 138.27L177.269 134.59L177.416 136.15L173.406 139.831Z" fill="#D82525"/>
<path d="M173.259 138.27L173.032 136.685L177.042 133.005L177.27 134.59L173.259 138.27Z" fill="#D82525"/>
<path d="M173.031 136.685L172.723 135.078L176.733 131.398L177.042 133.004L173.031 136.685Z" fill="#D82525"/>
<path d="M172.724 135.078L172.334 133.454L176.345 129.772L176.733 131.398L172.724 135.078Z" fill="#D82525"/>
<path d="M172.334 133.454L171.865 131.814L175.875 128.133L176.345 129.773L172.334 133.454Z" fill="#D82525"/>
<path d="M171.865 131.814L171.314 130.162L175.324 126.481L175.875 128.133L171.865 131.814Z" fill="#D82525"/>
<path d="M171.315 130.162L170.682 128.501L174.693 124.82L175.324 126.481L171.315 130.162Z" fill="#D82525"/>
<path d="M170.682 128.501L169.969 126.834L173.98 123.153L174.692 124.82L170.682 128.501Z" fill="#D82525"/>
<path d="M169.969 126.835L169.175 125.165L173.186 121.484L173.98 123.153L169.969 126.835Z" fill="#D82525"/>
<path d="M169.176 125.165L168.3 123.497L172.311 119.816L173.186 121.484L169.176 125.165Z" fill="#D82525"/>
<path d="M168.299 123.496L167.343 121.832L171.353 118.151L172.31 119.816L168.299 123.496Z" fill="#D82525"/>
<path d="M167.342 121.832L166.304 120.174L170.314 116.493L171.353 118.151L167.342 121.832Z" fill="#D82525"/>
<path d="M166.304 120.174L165.184 118.526L169.194 114.845L170.315 116.493L166.304 120.174Z" fill="#D82525"/>
<path d="M165.184 118.526L163.997 116.911L168.007 113.23L169.194 114.845L165.184 118.526Z" fill="#D82525"/>
<path d="M163.996 116.911L162.761 115.353L166.77 111.671L168.007 113.23L163.996 116.911Z" fill="#D82525"/>
<path d="M162.761 115.353L161.478 113.851L165.489 110.17L166.771 111.671L162.761 115.353Z" fill="#D82525"/>
<path d="M161.478 113.851L160.154 112.409L164.164 108.727L165.489 110.17L161.478 113.851Z" fill="#D82525"/>
<path d="M160.154 112.409L158.79 111.026L162.8 107.345L164.164 108.727L160.154 112.409Z" fill="#D82525"/>
<path d="M158.79 111.026L157.39 109.705L161.4 106.024L162.8 107.345L158.79 111.026Z" fill="#D82525"/>
<path d="M157.39 109.705L155.958 108.447L159.968 104.766L161.401 106.024L157.39 109.705Z" fill="#D82525"/>
<path d="M155.958 108.447L154.496 107.253L158.506 103.572L159.968 104.766L155.958 108.447Z" fill="#D82525"/>
<path d="M154.496 107.253L153.008 106.126L157.019 102.445L158.507 103.573L154.496 107.253Z" fill="#D82525"/>
<path d="M153.007 106.126L151.497 105.065L155.507 101.384L157.018 102.445L153.007 106.126Z" fill="#D82525"/>
<path d="M151.497 105.065L149.968 104.073L153.978 100.392L155.508 101.384L151.497 105.065Z" fill="#D82525"/>
<path d="M149.968 104.073L148.422 103.151L152.433 99.4693L153.978 100.392L149.968 104.073Z" fill="#D82525"/>
<path d="M148.422 103.151L146.864 102.3L150.874 98.6184L152.433 99.4692L148.422 103.151Z" fill="#D82525"/>
<path d="M146.864 102.3L145.296 101.521L149.307 97.8407L150.874 98.6184L146.864 102.3Z" fill="#D82525"/>
<path d="M145.296 101.521L143.723 100.818L147.733 97.1368L149.307 97.8406L145.296 101.521Z" fill="#D82525"/>
<path d="M143.723 100.818L142.146 100.19L146.156 96.5084L147.733 97.1369L143.723 100.818Z" fill="#D82525"/>
<path d="M142.146 100.19L140.57 99.6386L144.581 95.9572L146.156 96.5084L142.146 100.19Z" fill="#D82525"/>
<path d="M140.57 99.6386L138.998 99.1656L143.008 95.4842L144.58 95.9572L140.57 99.6386Z" fill="#D82525"/>
<path d="M138.998 99.1656L137.433 98.7727L141.444 95.0913L143.009 95.4842L138.998 99.1656Z" fill="#D82525"/>
<path d="M137.433 98.7727L135.879 98.4608L139.89 94.7794L141.444 95.0913L137.433 98.7727Z" fill="#D82525"/>
<path d="M135.879 98.4608L134.339 98.2312L138.349 94.5504L139.89 94.7794L135.879 98.4608Z" fill="#D82525"/>
<path d="M134.339 98.2311L132.816 98.086L136.826 94.4046L138.35 94.5504L134.339 98.2311Z" fill="#D82525"/>
<path d="M132.815 98.086L131.312 98.026L135.323 94.3453L136.825 94.4047L132.815 98.086Z" fill="#D82525"/>
<path d="M131.313 98.026L129.834 98.0532L133.845 94.3718L135.324 94.3452L131.313 98.026Z" fill="#D82525"/>
<path d="M129.834 98.0532L128.382 98.1684L132.393 94.487L133.845 94.3718L129.834 98.0532Z" fill="#D82525"/>
<path d="M128.382 98.1683L126.961 98.3728L130.971 94.6921L132.393 94.4869L128.382 98.1683Z" fill="#D82525"/>
<path d="M126.962 98.3729L125.574 98.6689L129.585 94.9875L130.972 94.6922L126.962 98.3729Z" fill="#D82525"/>
<path d="M125.574 98.6689L124.224 99.0571L128.234 95.3757L129.584 94.9875L125.574 98.6689Z" fill="#D82525"/>
<path d="M124.224 99.0572L122.914 99.539L126.924 95.8583L128.234 95.3758L124.224 99.0572Z" fill="#D82525"/>
<path d="M122.914 99.5389L121.648 100.116L125.658 96.4351L126.924 95.8582L122.914 99.5389Z" fill="#D82525"/>
<path fill-rule="evenodd" clip-rule="evenodd" d="M121.648 100.117L129.19 110.782L116.061 117.387L112.05 121.068L130.057 112.009L130.058 112.008L130.059 112.01L130.059 112.01L130.818 111.663L134.828 107.982L134.069 108.328L134.069 108.328L125.658 96.4351L121.648 100.117ZM130.818 111.663L131.605 111.374L131.605 111.374L132.414 111.141L132.414 111.141L133.247 110.963L137.257 107.283L136.424 107.46L136.424 107.46L135.614 107.693L135.614 107.693L134.829 107.982L130.818 111.663ZM134.099 110.841L133.247 110.963L137.257 107.283L138.11 107.16L134.099 110.841ZM134.1 110.841L134.97 110.772L134.97 110.772L135.857 110.755L139.867 107.074L138.98 107.09L138.98 107.09L138.11 107.16L134.1 110.841ZM135.857 110.755L136.759 110.791L140.769 107.11L139.868 107.074L135.857 110.755ZM137.673 110.878L136.759 110.791L140.77 107.111L141.684 107.198L141.684 107.198L141.684 107.198L142.608 107.335L142.608 107.335L143.54 107.522L143.54 107.522L144.478 107.758L140.469 111.439L139.53 111.203L139.53 111.203L138.597 111.016L138.597 111.016L137.673 110.878ZM141.412 111.723L140.469 111.439L144.479 107.758L145.422 108.042L145.422 108.042L146.368 108.373L142.358 112.053L141.412 111.723L141.412 111.723L141.412 111.723ZM143.304 112.43L143.304 112.43L142.358 112.053L146.368 108.373L147.313 108.75L147.314 108.75L148.258 109.172L148.258 109.172L149.199 109.639L149.198 109.639L150.133 110.149L150.133 110.149L151.06 110.702L147.051 114.384L146.123 113.83L146.123 113.83L145.188 113.32L145.188 113.32L144.248 112.853L144.248 112.853L143.304 112.43ZM147.051 114.384L147.968 114.979L147.968 114.979L148.875 115.615L152.885 111.934L151.979 111.298L151.979 111.298L151.061 110.702L147.051 114.384ZM149.767 116.292L148.875 115.615L152.885 111.934L153.778 112.611L153.778 112.611L154.655 113.327L150.644 117.008L149.767 116.292L149.767 116.292ZM150.644 117.008L151.504 117.763L151.504 117.763L152.344 118.555L152.344 118.555L153.162 119.384L157.172 115.704L156.354 114.875L156.354 114.875L155.514 114.082L155.514 114.082L154.655 113.327L150.644 117.008ZM153.957 120.25L153.162 119.385L157.172 115.704L157.967 116.57L153.957 120.25ZM158.736 117.47L159.478 118.405L159.478 118.406L160.19 119.374L156.179 123.055L155.467 122.086L155.468 122.086L154.726 121.151L154.727 121.151L153.958 120.25L157.967 116.57L158.737 117.47L158.736 117.47ZM161.486 121.358L160.862 120.363L160.863 120.363L160.191 119.374L156.18 123.055L156.853 124.044L156.853 124.044L157.475 125.038L157.475 125.039L158.049 126.038L158.049 126.038L158.575 127.039L162.584 123.358L162.059 122.357L162.059 122.357L161.485 121.358L161.486 121.358ZM163.488 125.359L163.061 124.36L163.062 124.359L162.585 123.358L158.575 127.039L159.051 128.04L159.051 128.041L159.479 129.04L163.488 125.359ZM159.858 130.037L159.479 129.04L163.489 125.36L163.868 126.356L159.858 130.037ZM159.858 130.037L160.189 131.028L164.199 127.347L163.868 126.356L159.858 130.037ZM164.714 129.306L164.481 128.331L164.481 128.331L164.199 127.347L160.189 131.028L160.47 132.012L160.47 132.012L160.703 132.987L164.714 129.306ZM165.036 131.221L164.899 130.27L164.899 130.269L164.714 129.306L160.704 132.987L160.889 133.951L160.889 133.951L161.025 134.902L161.025 134.902L161.113 135.839L165.123 132.157L165.035 131.221L165.036 131.221ZM165.163 133.078L165.155 133.979L165.155 133.979L165.099 134.86L161.088 138.541L161.145 137.66L161.145 137.66L161.153 136.759L161.153 136.758L161.113 135.839L165.124 132.157L165.164 133.077L165.163 133.078ZM164.843 136.553L164.995 135.719L164.995 135.719L165.099 134.86L161.089 138.541L160.985 139.4L160.985 139.4L160.832 140.235L164.843 136.553ZM160.633 141.043L160.833 140.235L164.843 136.553L164.643 137.362L164.643 137.362L164.395 138.143L164.395 138.144L164.099 138.895L160.089 142.576L160.385 141.825L160.385 141.824L160.633 141.044L160.633 141.043ZM163.756 139.615L163.365 140.3L163.365 140.301L162.927 140.951L162.927 140.951L162.441 141.565L162.439 141.567L161.907 142.139L161.744 142.29L160.141 143.761L159.675 144.189L157.317 146.354L157.897 145.821L158.43 145.246L158.431 145.245L158.916 144.632L158.916 144.632L159.355 143.982L159.355 143.982L159.746 143.295L159.747 143.295L160.09 142.576L164.1 138.895L163.757 139.614L163.756 139.615Z" fill="url(#paint3_linear_856_1419)"/>
<path d="M157.317 146.354L156.689 146.844L160.699 143.164L161.327 142.673L157.317 146.354Z" fill="#D82525"/>
<path d="M156.689 146.844L156.014 147.29L160.024 143.609L160.699 143.164L156.689 146.844Z" fill="#D82525"/>
<path d="M156.014 147.29L155.292 147.69L159.301 144.008L160.024 143.609L156.014 147.29Z" fill="#D82525"/>
<path d="M155.292 147.69L155.29 147.688L159.301 144.007L159.301 144.008L155.292 147.69Z" fill="#D82525"/>
<path d="M140.72 122.771L149.131 134.664L153.141 130.983L144.731 119.09L140.72 122.771Z" fill="#D82525"/>
<path d="M131.124 143.723L122.714 131.83L126.724 128.149L135.135 140.042L131.124 143.723Z" fill="#D82525"/>
<path d="M122.713 131.83L140.72 122.771L144.731 119.09L126.724 128.149L122.713 131.83Z" fill="#D82525"/>
<path d="M115.487 87.0902L107.076 75.1969L111.086 71.5161L119.497 83.4094L115.487 87.0902Z" fill="#D82525"/>
<path d="M107.076 75.1969L89.0694 84.2564L93.0799 80.575L111.087 71.5161L107.076 75.1969Z" fill="#D82525"/>
<path d="M131.123 143.723L122.712 131.83L126.722 128.148L135.134 140.042L131.123 143.723Z" fill="#D82525"/>
<path d="M122.711 131.83L121.951 132.176L125.962 128.495L126.721 128.148L122.711 131.83Z" fill="#D82525"/>
<path d="M121.952 132.176L121.166 132.465L125.177 128.784L125.962 128.494L121.952 132.176Z" fill="#D82525"/>
<path d="M121.166 132.465L120.356 132.698L124.366 129.017L125.177 128.784L121.166 132.465Z" fill="#D82525"/>
<path d="M120.356 132.698L119.524 132.875L123.534 129.194L124.366 129.017L120.356 132.698Z" fill="#D82525"/>
<path d="M119.524 132.875L118.672 132.998L122.681 129.317L123.535 129.194L119.524 132.875Z" fill="#D82525"/>
<path d="M118.671 132.998L117.8 133.067L121.81 129.386L122.681 129.317L118.671 132.998Z" fill="#D82525"/>
<path d="M117.8 133.068L116.913 133.084L120.923 129.402L121.81 129.386L117.8 133.068Z" fill="#D82525"/>
<path d="M116.912 133.084L116.011 133.047L120.021 129.367L120.923 129.402L116.912 133.084Z" fill="#D82525"/>
<path d="M116.011 133.047L115.097 132.96L119.107 129.28L120.021 129.367L116.011 133.047Z" fill="#D82525"/>
<path d="M115.097 132.96L114.173 132.823L118.183 129.142L119.107 129.28L115.097 132.96Z" fill="#D82525"/>
<path d="M114.173 132.823L113.241 132.636L117.252 128.955L118.184 129.142L114.173 132.823Z" fill="#D82525"/>
<path d="M113.24 132.636L112.302 132.4L116.312 128.719L117.251 128.955L113.24 132.636Z" fill="#D82525"/>
<path d="M112.302 132.4L111.358 132.116L115.369 128.435L116.312 128.719L112.302 132.4Z" fill="#D82525"/>
<path d="M111.358 132.116L110.413 131.785L114.423 128.105L115.369 128.435L111.358 132.116Z" fill="#D82525"/>
<path d="M110.413 131.785L109.467 131.408L113.478 127.728L114.423 128.105L110.413 131.785Z" fill="#D82525"/>
<path d="M109.468 131.408L108.523 130.986L112.534 127.305L113.478 127.728L109.468 131.408Z" fill="#D82525"/>
<path d="M108.523 130.986L107.582 130.519L111.593 126.838L112.534 127.305L108.523 130.986Z" fill="#D82525"/>
<path d="M107.582 130.519L106.647 130.009L110.657 126.328L111.593 126.838L107.582 130.519Z" fill="#D82525"/>
<path d="M106.647 130.009L105.72 129.456L109.729 125.774L110.657 126.328L106.647 130.009Z" fill="#D82525"/>
<path d="M105.72 129.456L104.802 128.86L108.813 125.179L109.73 125.774L105.72 129.456Z" fill="#D82525"/>
<path d="M104.802 128.86L103.896 128.224L107.906 124.543L108.813 125.179L104.802 128.86Z" fill="#D82525"/>
<path d="M103.895 128.224L103.003 127.547L107.013 123.866L107.906 124.543L103.895 128.224Z" fill="#D82525"/>
<path d="M103.003 127.547L102.126 126.831L106.136 123.15L107.013 123.866L103.003 127.547Z" fill="#D82525"/>
<path d="M102.126 126.831L101.267 126.076L105.277 122.395L106.136 123.15L102.126 126.831Z" fill="#D82525"/>
<path d="M101.267 126.076L100.427 125.283L104.437 121.603L105.277 122.395L101.267 126.076Z" fill="#D82525"/>
<path d="M100.426 125.283L99.6082 124.454L103.618 120.773L104.437 121.603L100.426 125.283Z" fill="#D82525"/>
<path d="M99.6087 124.454L98.8138 123.589L102.824 119.907L103.619 120.773L99.6087 124.454Z" fill="#D82525"/>
<path d="M98.8134 123.589L98.0442 122.688L102.054 119.006L102.823 119.907L98.8134 123.589Z" fill="#D82525"/>
<path d="M98.0442 122.688L97.3021 121.752L101.313 118.072L102.054 119.006L98.0442 122.688Z" fill="#D82525"/>
<path d="M97.3021 121.752L96.5901 120.784L100.601 117.103L101.313 118.072L97.3021 121.752Z" fill="#D82525"/>
<path d="M96.5907 120.784L95.9188 119.795L99.9286 116.113L100.601 117.102L96.5907 120.784Z" fill="#D82525"/>
<path d="M95.9181 119.795L95.2948 118.8L99.3046 115.119L99.928 116.113L95.9181 119.795Z" fill="#D82525"/>
<path d="M95.2948 118.8L94.7205 117.801L98.731 114.12L99.3046 115.119L95.2948 118.8Z" fill="#D82525"/>
<path d="M94.7213 117.801L94.1961 116.8L98.206 113.119L98.7318 114.12L94.7213 117.801Z" fill="#D82525"/>
<path d="M94.1954 116.8L93.7186 115.799L97.7291 112.117L98.2052 113.119L94.1954 116.8Z" fill="#D82525"/>
<path d="M93.7191 115.799L93.2918 114.798L97.3017 111.118L97.7296 112.117L93.7191 115.799Z" fill="#D82525"/>
<path d="M93.2915 114.798L92.9124 113.802L96.9223 110.121L97.3013 111.118L93.2915 114.798Z" fill="#D82525"/>
<path d="M92.9128 113.802L92.5818 112.811L96.5923 109.13L96.9226 110.121L92.9128 113.802Z" fill="#D82525"/>
<path d="M92.5812 112.811L92.2996 111.827L96.3101 108.146L96.5917 109.13L92.5812 112.811Z" fill="#D82525"/>
<path d="M92.2998 111.827L92.0662 110.852L96.0767 107.171L96.3103 108.146L92.2998 111.827Z" fill="#D82525"/>
<path d="M92.0666 110.852L91.8817 109.888L95.8921 106.207L96.0771 107.171L92.0666 110.852Z" fill="#D82525"/>
<path d="M91.8819 109.888L91.7454 108.937L95.7559 105.256L95.8924 106.207L91.8819 109.888Z" fill="#D82525"/>
<path d="M91.7446 108.937L91.6565 108L95.667 104.319L95.755 105.256L91.7446 108.937Z" fill="#D82525"/>
<path d="M91.6573 108L91.617 107.081L95.6275 103.399L95.6678 104.319L91.6573 108Z" fill="#D82525"/>
<path d="M91.6168 107.081L91.6248 106.179L95.6353 102.498L95.6273 103.399L91.6168 107.081Z" fill="#D82525"/>
<path d="M91.6247 106.179L91.681 105.298L95.6915 101.617L95.6352 102.498L91.6247 106.179Z" fill="#D82525"/>
<path d="M91.6811 105.298L91.7856 104.439L95.7961 100.758L95.6916 101.617L91.6811 105.298Z" fill="#D82525"/>
<path d="M91.7854 104.439L91.9374 103.604L95.9479 99.923L95.7959 100.758L91.7854 104.439Z" fill="#D82525"/>
<path d="M91.9372 103.604L92.1378 102.795L96.1477 99.1144L95.9477 99.923L91.9372 103.604Z" fill="#D82525"/>
<path d="M92.1384 102.795L92.3856 102.015L96.3961 98.3333L96.1482 99.1145L92.1384 102.795Z" fill="#D82525"/>
<path d="M92.3854 102.015L92.6813 101.263L96.6918 97.5822L96.3959 98.3333L92.3854 102.015Z" fill="#D82525"/>
<path d="M92.681 101.263L93.0246 100.544L97.0345 96.8625L96.6914 97.5822L92.681 101.263Z" fill="#D82525"/>
<path d="M93.0253 100.544L93.4162 99.8574L97.426 96.176L97.0352 96.8625L93.0253 100.544Z" fill="#D82525"/>
<path d="M93.4152 99.8575L93.8538 99.2063L97.8636 95.5256L97.4251 96.1761L93.4152 99.8575Z" fill="#D82525"/>
<path d="M93.854 99.2063L94.3395 98.5929L98.35 94.9122L97.8639 95.5256L93.854 99.2063Z" fill="#D82525"/>
<path d="M94.3397 98.593L94.8735 98.0187L98.8833 94.3373L98.3502 94.9122L94.3397 98.593Z" fill="#D82525"/>
<path d="M94.8734 98.0186L95.4539 97.4853L99.4644 93.804L98.8832 94.3372L94.8734 98.0186Z" fill="#D82525"/>
<path d="M95.454 97.4854L96.082 96.9945L100.092 93.3137L99.4645 93.804L95.454 97.4854Z" fill="#D82525"/>
<path d="M96.0815 96.9944L96.7569 96.549L100.767 92.8676L100.092 93.3137L96.0815 96.9944Z" fill="#D82525"/>
<path d="M96.7569 96.5489L97.479 96.1497L101.489 92.4683L100.767 92.8675L96.7569 96.5489Z" fill="#D82525"/>
<path fill-rule="evenodd" clip-rule="evenodd" d="M97.4797 96.1494L97.4799 96.1497L101.49 92.4684L93.0797 80.5751L92.7682 80.861L89.0687 84.2564L97.4794 96.1497L97.4797 96.1494ZM97.4801 96.1498L115.487 87.0903L119.497 83.4095L101.491 92.4684L97.4801 96.1498Z" fill="url(#paint4_linear_856_1419)"/>
<path d="M89.0684 84.2564L87.8644 84.9219L91.8749 81.2405L93.0789 80.5757L89.0684 84.2564Z" fill="#D82525"/>
<path d="M87.8651 84.9218L86.7401 85.6648L90.75 81.9834L91.8756 81.2404L87.8651 84.9218Z" fill="#D82525"/>
<path d="M86.7397 85.6649L85.6926 86.4823L89.7031 82.8016L90.7496 81.9835L86.7397 85.6649Z" fill="#D82525"/>
<path d="M85.6922 86.4823L84.7243 87.3716L88.7348 83.6902L89.7026 82.8016L85.6922 86.4823Z" fill="#D82525"/>
<path fill-rule="evenodd" clip-rule="evenodd" d="M87.8448 84.6489L87.0359 85.6704L83.0254 89.3512L83.8357 88.3287L83.8375 88.327L84.7243 87.3716L88.7348 83.6902L87.8457 84.648L87.8448 84.6489ZM92.784 123.247L94.0203 124.805L94.0203 124.805L95.3021 126.307L91.2916 129.988L90.0098 128.487L90.0098 128.487L88.7733 126.928L88.7734 126.928L87.5867 125.313L87.5868 125.313L86.4663 123.665L86.4665 123.665L85.4284 122.007L89.4382 118.326L90.4772 119.984L90.477 119.984L91.5973 121.632L91.5972 121.632L92.784 123.247L92.784 123.247ZM149.131 134.664L131.124 143.723L135.134 140.042L153.141 130.983L149.131 134.664ZM97.9905 129.132L96.6266 127.749L96.6268 127.749L95.3023 126.307L91.2919 129.988L92.6168 131.43L92.6166 131.431L93.98 132.813L97.9905 129.132ZM93.9807 132.813L95.3809 134.134L95.3807 134.134L96.8129 135.392L96.8129 135.392L98.2746 136.585L102.284 132.905L100.823 131.711L100.823 131.711L99.3907 130.453L99.3909 130.453L97.9911 129.132L93.9807 132.813ZM99.7624 137.713L98.2753 136.585L102.285 132.905L103.773 134.033L103.773 134.033L105.283 135.093L105.283 135.093L106.812 136.085L102.802 139.766L101.272 138.774L101.272 138.774L99.7621 137.713L99.7624 137.713ZM104.348 140.689L102.802 139.766L106.812 136.085L108.358 137.007L104.348 140.689ZM105.906 141.539L104.348 140.689L108.358 137.007L109.917 137.858L109.917 137.858L111.484 138.636L107.474 142.317L105.906 141.539L105.906 141.539ZM107.474 142.317L109.048 143.021L113.058 139.34L111.484 138.636L107.474 142.317ZM110.624 143.649L110.624 143.649L109.048 143.021L113.058 139.34L114.634 139.968L114.634 139.968L116.21 140.52L112.2 144.201L110.624 143.649ZM113.772 144.674L112.201 144.201L116.211 140.52L117.783 140.992L113.772 144.674ZM115.337 145.066L113.773 144.674L117.783 140.992L119.348 141.386L119.348 141.386L120.901 141.698L116.891 145.378L115.337 145.067L115.337 145.066ZM118.432 145.608L116.892 145.379L120.901 141.698L122.442 141.927L122.442 141.927L123.965 142.072L119.954 145.753L118.432 145.608L118.432 145.608ZM119.954 145.753L121.457 145.813L121.457 145.813L121.457 145.813L122.935 145.786L126.946 142.105L125.467 142.132L123.965 142.072L119.954 145.753ZM122.936 145.786L124.388 145.671L128.398 141.99L126.946 142.105L122.936 145.786ZM125.809 145.466L124.388 145.671L128.398 141.99L129.819 141.785L129.819 141.785L129.819 141.785L131.207 141.49L131.206 141.49L132.557 141.101L132.557 141.101L133.867 140.619L135.133 140.042L131.122 143.723L129.857 144.3L129.857 144.3L128.547 144.782L128.546 144.782L127.197 145.17L127.197 145.17L125.809 145.466L125.809 145.466L125.809 145.466ZM86.3049 86.7559L85.6538 87.8986L81.6433 91.5794L82.2949 90.4358L82.2959 90.4348L83.0259 89.3512L87.0363 85.6704L86.3057 86.7551L86.3049 86.7559ZM81.6435 91.5794L81.0711 92.7794L81.0711 92.7794L80.5787 94.0312L84.5885 90.3498L85.0816 89.098L85.0816 89.098L85.654 87.8987L81.6435 91.5794ZM80.5789 94.0311L80.1659 95.3328L84.1758 91.6514L84.5888 90.3497L80.5789 94.0311ZM83.5887 94.3911L83.8419 93.0002L83.8423 92.9998L84.1758 91.6514L80.1659 95.3328L79.8326 96.6801L79.8321 96.6806L79.5783 98.0723L79.5782 98.0724L79.4047 99.5033L83.4146 95.8225L83.5886 94.3911L83.5887 94.3911ZM83.3207 97.2917L83.3071 98.7936L79.2973 102.474L79.3103 100.972L79.311 100.971L79.4052 99.5033L83.415 95.8225L83.3214 97.2911L83.3207 97.2917ZM79.2978 102.474L79.3642 104.008L83.3747 100.326L83.3076 98.7935L79.2978 102.474ZM83.7487 103.473L83.5211 101.888L83.5216 101.888L83.3749 100.327L79.3644 104.008L79.5117 105.568L79.5112 105.568L79.7388 107.154L83.7487 103.473ZM80.0471 108.76L79.739 107.154L83.7489 103.473L84.0569 105.079L84.0568 105.079L84.4461 106.704L80.4356 110.385L80.047 108.76L80.0471 108.76ZM80.9058 112.025L80.4359 110.385L84.4464 106.704L84.9163 108.344L80.9058 112.025ZM80.906 112.025L81.4567 113.677L81.4566 113.677L82.088 115.338L82.0878 115.338L82.801 117.005L86.8108 113.323L86.0984 111.657L86.0986 111.657L85.4671 109.996L85.4671 109.996L84.9165 108.344L80.906 112.025ZM83.5946 118.674L82.801 117.005L86.8108 113.323L87.6051 114.993L83.5946 118.674ZM88.4811 116.661L89.4379 118.326L85.4281 122.007L84.4706 120.342L84.4707 120.342L83.5953 118.674L87.6057 114.993L88.4813 116.661L88.4811 116.661Z" fill="url(#paint5_linear_856_1419)"/>
<path d="M116.06 117.387L107.649 105.494L125.656 96.4343L134.067 108.328L116.06 117.387ZM141.293 153.066L149.704 164.96L167.711 155.901C180.143 149.647 180.806 131.266 169.193 114.845C157.58 98.4235 138.089 90.1813 125.658 96.435L134.068 108.328C141.527 104.576 153.222 109.521 160.19 119.374C167.157 129.226 166.76 140.256 159.301 144.008L159.3 144.007L141.293 153.066ZM144.73 119.09L153.141 130.983L135.134 140.042L126.723 128.149L144.73 119.09ZM119.496 83.4094L111.086 71.5161L93.0789 80.575L101.49 92.4683L119.496 83.4094ZM91.5967 121.632C103.209 138.053 122.701 146.296 135.133 140.042L126.721 128.148C119.263 131.9 107.567 126.956 100.6 117.102C93.6321 107.25 94.0314 96.2205 101.49 92.4683L93.0782 80.5756C80.6467 86.8293 79.9834 105.211 91.5967 121.632Z" fill="white"/>
</g>
<defs>
<linearGradient id="paint0_linear_856_1419" x1="37.9694" y1="70.358" x2="132.992" y2="224.28" gradientUnits="userSpaceOnUse">
<stop offset="0.359375" stop-color="#8C9BEE"/>
<stop offset="1" stop-color="#27368B"/>
</linearGradient>
<linearGradient id="paint1_linear_856_1419" x1="12.4553" y1="36.5079" x2="185.966" y2="81.156" gradientUnits="userSpaceOnUse">
<stop stop-color="#5065E4"/>
<stop offset="1" stop-color="#B9C2F4"/>
</linearGradient>
<linearGradient id="paint2_linear_856_1419" x1="159.641" y1="151.349" x2="169.224" y2="167.592" gradientUnits="userSpaceOnUse">
<stop stop-color="#8899F5"/>
<stop offset="1" stop-color="#29368C"/>
</linearGradient>
<linearGradient id="paint3_linear_856_1419" x1="139.706" y1="96.9421" x2="168.827" y2="132.871" gradientUnits="userSpaceOnUse">
<stop stop-color="#8899F5"/>
<stop offset="1" stop-color="#29368C"/>
</linearGradient>
<linearGradient id="paint4_linear_856_1419" x1="104.386" y1="80.983" x2="111.437" y2="96.9398" gradientUnits="userSpaceOnUse">
<stop stop-color="#8899F5"/>
<stop offset="1" stop-color="#29368C"/>
</linearGradient>
<linearGradient id="paint5_linear_856_1419" x1="117.353" y1="84.7229" x2="152.782" y2="133.739" gradientUnits="userSpaceOnUse">
<stop stop-color="#8899F5"/>
<stop offset="1" stop-color="#29368C"/>
</linearGradient>
</defs>
</svg>
