<svg width="144" height="142" viewBox="0 0 144 142" fill="none" xmlns="http://www.w3.org/2000/svg">
<g opacity="0.2">
<path fill-rule="evenodd" clip-rule="evenodd" d="M69.0975 108.178C93.3041 110.363 114.181 98.2495 115.728 81.1207C115.791 80.4175 115.821 79.7167 115.819 79.0193L115.844 79.0577L115.814 78.6607C115.798 77.8392 115.737 77.0225 115.632 76.212L115.302 71.7975L114.812 72.4157C110.737 58.9724 94.7127 47.9557 74.6984 46.1486C50.4918 43.9628 29.6146 56.0766 28.068 73.2054C26.5213 90.3342 44.8909 105.992 69.0975 108.178Z" fill="url(#paint0_linear_865_2508)"/>
<ellipse cx="71.9004" cy="71.0028" rx="43.5545" ry="30.8196" transform="rotate(5.15955 71.9004 71.0028)" fill="url(#paint1_linear_865_2508)"/>
<path fill-rule="evenodd" clip-rule="evenodd" d="M49.774 51.3196C43.1387 54.9113 38.8384 60.2528 38.2781 66.4573C37.7179 72.6617 40.9918 78.6871 46.8764 83.4094C52.7573 88.1286 61.1973 91.4988 70.8047 92.3663C80.4122 93.2338 89.3194 91.43 95.9505 87.8405C102.586 84.2488 106.886 78.9073 107.446 72.7028C108.007 66.4984 104.733 60.473 98.848 55.7507C92.9672 51.0315 84.5272 47.6613 74.9197 46.7938C65.3123 45.9263 56.4051 47.7301 49.774 51.3196ZM49.2623 50.3744C56.1041 46.6709 65.2279 44.8395 75.0164 45.7233C84.8048 46.6072 93.4531 50.0433 99.5207 54.9125C105.585 59.7786 109.12 66.1238 108.517 72.7995C107.914 79.4752 103.3 85.0845 96.4621 88.7858C89.6204 92.4892 80.4965 94.3206 70.7081 93.4368C60.9196 92.5529 52.2714 89.1168 46.2037 84.2476C40.1398 79.3815 36.6049 73.0363 37.2077 66.3606C37.8104 59.6849 42.4248 54.0756 49.2623 50.3744Z" fill="#7989EB"/>
<path d="M68.014 64.2837L71.3859 59.9247L83.7907 63.1116L80.4189 67.4706L68.014 64.2837ZM57.8989 77.3608L54.5271 81.7197L66.9317 84.9065C75.4957 87.1068 86.2117 84.0115 90.8673 77.9932C95.5229 71.9746 92.3547 65.3124 83.7908 63.1121L80.4189 67.471C85.5572 68.7911 87.4581 72.7887 84.6647 76.3998C81.8715 80.0107 75.4419 81.868 70.3036 80.548L70.3038 80.5477L57.8989 77.3608ZM78.5976 72.2285L75.2258 76.5874L62.8208 73.4007L66.1928 69.0416L78.5976 72.2285ZM88.7133 59.1514L92.0852 54.7925L79.6801 51.6054L76.3083 55.9644L88.7133 59.1514ZM55.744 58.519C51.0885 64.5374 54.2569 71.1998 62.8206 73.3999L66.1925 69.041C61.0542 67.7209 59.1535 63.7234 61.9467 60.1125C64.7401 56.5014 71.17 54.6443 76.3083 55.9644L79.6801 51.6054C71.1163 49.4053 60.3997 52.5004 55.744 58.519Z" fill="#FFC303"/>
<path d="M68.0144 64.2838L71.3863 59.9249L71.0239 57.7354L67.6521 62.0943L68.0144 64.2838Z" fill="#D82525"/>
<path d="M71.3857 59.9247L83.7906 63.1116L83.4282 60.9221L71.0234 57.7352L71.3857 59.9247Z" fill="#D82525"/>
<path d="M83.7906 63.1117L80.4187 67.4706L80.0564 65.2811L83.4282 60.9222L83.7906 63.1117Z" fill="#D82525"/>
<path d="M57.899 77.3608L54.5271 81.7197L54.1648 79.5302L57.5366 75.1713L57.899 77.3608Z" fill="#D82525"/>
<path d="M66.9322 84.9066L66.5696 82.7173L66.5698 82.7171L66.9322 84.9066Z" fill="#D82525"/>
<path fill-rule="evenodd" clip-rule="evenodd" d="M92.5948 69.2209L92.5948 69.2203L92.492 68.5993L92.5907 69.1752L92.5909 69.1764L92.5908 69.1753L92.9529 71.3651L93.0053 71.9494L92.7372 70.3292L92.7366 70.3269L93.005 71.9491L93.0105 72.5392L93.0108 72.5409L92.9691 73.1381L92.9691 73.1382L92.8797 73.7397L92.8797 73.7401L92.7417 74.3459L92.3795 72.1561L92.5175 71.5507L92.5174 71.5503L92.6069 70.9484L92.607 70.9483L92.6486 70.352L92.6484 70.3508L92.6433 69.8194L92.3477 68.0323L92.492 68.5993L92.5948 69.2209ZM92.5547 74.9541L92.5547 74.954L92.5547 74.954L92.7414 74.3459L92.3792 72.1561L92.1924 72.7645L92.1923 72.7645L92.1923 72.7646L91.956 73.3741L91.956 73.3743L91.6699 73.9838L92.0321 76.1736L92.3185 75.5635L92.3184 75.5633L92.5547 74.9541ZM91.3328 74.5931L90.9452 75.1998L90.5056 75.8034L90.8678 77.9932L91.3075 77.3894L91.3075 77.3893L91.6954 76.7827L91.6953 76.7822L92.0318 76.1735L91.6697 73.9838L91.3327 74.5926L91.3328 74.5931ZM90.3824 78.5852L90.8678 77.9932L90.5056 75.8034L90.0201 76.3956L90.3824 78.5852ZM90.3822 78.5853L89.8583 79.1573L89.8583 79.1572L89.2975 79.7086L88.9351 77.519L89.4958 76.9675L89.4958 76.9675L90.0199 76.3958L90.3822 78.5853ZM89.2974 79.7087L88.7017 80.239L88.3394 78.0494L88.9351 77.5191L89.2974 79.7087ZM87.0504 79.0448L87.7105 78.5583L87.7104 78.558L88.3392 78.0492L88.7015 80.2387L88.0728 80.7476L88.0728 80.7479L87.4128 81.2343L87.0504 79.0448ZM85.6441 79.9497L86.3609 79.5091L86.3609 79.5089L87.0503 79.0448L87.4127 81.2344L86.7234 81.6984L86.7234 81.6986L86.0063 82.1394L85.6441 79.9497ZM85.2631 82.5565L86.0061 82.1394L85.644 79.9496L84.901 80.3668L85.2631 82.5565ZM84.1336 80.7599L83.3449 81.1278L83.3449 81.128L82.5355 81.471L82.8978 83.6605L83.7071 83.3177L83.7071 83.3175L84.4963 82.9493L84.4963 82.9492L85.2629 82.5566L84.9007 80.3668L84.1336 80.7598L84.1336 80.7599ZM80.8625 82.0785L81.7069 81.7879L81.7068 81.7878L82.5349 81.4708L82.8973 83.6604L82.0694 83.9773L82.0694 83.9774L81.2248 84.268L80.8625 82.0785ZM80.3654 84.5322L81.2248 84.2683L80.8624 82.0787L80.003 82.3425L80.003 82.3423L79.1307 82.5786L79.4928 84.7684L80.3654 84.532L80.3654 84.5322ZM77.3538 82.9676L78.2468 82.7874L78.2468 82.7873L79.1305 82.5788L79.4927 84.7685L78.6091 84.9771L78.6091 84.9772L77.7162 85.1571L77.7162 85.1571L76.8155 85.3084L76.8155 85.3082L75.9092 85.4299L75.9092 85.4299L74.999 85.5212L74.6366 83.3317L75.5468 83.24L75.5468 83.2399L76.4534 83.1184L76.4534 83.1186L77.3538 82.9676L77.3538 82.9676ZM74.0865 85.5822L74.9987 85.5211L74.6364 83.3316L73.724 83.3927L73.724 83.3928L72.8116 83.4224L72.8117 83.4225L71.9005 83.421L71.9006 83.4211L70.9932 83.3871L71.3553 85.5768L72.263 85.6106L72.263 85.6106L73.1739 85.6122L73.1738 85.6122L74.0865 85.5823L74.0865 85.5822ZM71.3551 85.5765L70.4527 85.5099L70.0904 83.3204L70.9929 83.3868L71.3551 85.5765ZM70.4526 85.5101L69.5574 85.4105L69.5574 85.4106L68.671 85.2771L68.6709 85.277L67.7952 85.1094L67.4329 82.9198L68.3086 83.0874L68.3086 83.0876L69.195 83.2208L69.195 83.2207L70.0903 83.3205L70.4526 85.5101ZM67.7951 85.1093L66.9318 84.9068L66.9318 84.9065L54.5275 81.7198L54.1651 79.5303L66.5697 82.717L66.5698 82.7173L67.4328 82.9198L67.7951 85.1093Z" fill="url(#paint2_linear_865_2508)"/>
<path d="M92.7098 70.2221L92.5205 69.6656L92.1582 67.476L92.3476 68.0323L92.7098 70.2221Z" fill="#D82525"/>
<path d="M92.5203 69.6657L92.2864 69.1211L91.9238 66.9314L92.1579 67.4762L92.5203 69.6657Z" fill="#D82525"/>
<path d="M92.287 69.1209L92.0088 68.5887L91.6465 66.3992L91.9244 66.9312L92.287 69.1209Z" fill="#D82525"/>
<path d="M92.0085 68.5885L91.6869 68.0705L91.3247 65.8808L91.6462 66.399L92.0085 68.5885Z" fill="#D82525"/>
<path d="M91.6868 68.0708L91.3223 67.5676L90.96 65.3781L91.3246 65.8811L91.6868 68.0708Z" fill="#D82525"/>
<path d="M91.322 67.5673L90.9149 67.0805L90.5527 64.8907L90.9596 65.3778L91.322 67.5673Z" fill="#D82525"/>
<path d="M90.9153 67.0807L90.4666 66.6109L90.104 64.4212L90.5532 64.891L90.9153 67.0807Z" fill="#D82525"/>
<path d="M90.4664 66.6106L89.9759 66.1593L89.6138 63.9695L90.1038 64.4209L90.4664 66.6106Z" fill="#D82525"/>
<path d="M89.9759 66.1594L89.4449 65.7275L89.0825 63.5379L89.6137 63.9697L89.9759 66.1594Z" fill="#D82525"/>
<path d="M89.4448 65.7273L88.8732 65.3161L88.511 63.1264L89.0825 63.5377L89.4448 65.7273Z" fill="#D82525"/>
<path d="M88.8738 65.3165L88.2628 64.9271L87.9004 62.7376L88.5117 63.1267L88.8738 65.3165Z" fill="#D82525"/>
<path d="M88.2625 64.927L87.6122 64.5605L87.2498 62.371L87.9001 62.7375L88.2625 64.927Z" fill="#D82525"/>
<path d="M87.612 64.5603L86.9229 64.218L86.5606 62.0284L87.2496 62.3708L87.612 64.5603Z" fill="#D82525"/>
<path d="M86.9234 64.2181L86.1962 63.901L85.8339 61.7114L86.5611 62.0286L86.9234 64.2181Z" fill="#D82525"/>
<path d="M86.1959 63.9011L85.4311 63.6104L85.0689 61.4206L85.8335 61.7115L86.1959 63.9011Z" fill="#D82525"/>
<path d="M85.4306 63.6102L84.6289 63.3469L84.2666 61.1573L85.0685 61.4204L85.4306 63.6102Z" fill="#D82525"/>
<path d="M84.6294 63.347L83.791 63.1122L83.4287 60.9227L84.267 61.1574L84.6294 63.347Z" fill="#D82525"/>
<path fill-rule="evenodd" clip-rule="evenodd" d="M80.4191 67.4712L80.4192 67.4711L80.9219 67.6118L80.8141 66.9606L80.8145 66.9601L80.9223 67.6119L81.4032 67.7699L81.4032 67.77L81.8616 67.9443L81.8616 67.9443L82.2979 68.1347L81.9357 65.9449L81.6845 65.8353L83.791 63.1122L83.4286 60.9227L80.0568 65.2815L80.0567 65.2815L80.0566 65.281L67.6518 62.0941L68.0141 64.2836L80.4187 67.4705L80.4188 67.471L80.4191 67.4711L80.4191 67.4712ZM82.298 68.1348L82.7114 68.3402L82.3492 66.1505L81.9359 65.945L82.298 68.1348ZM83.102 68.56L83.1019 68.5599L82.7117 68.3403L82.3496 66.1505L82.7395 66.3704L82.7396 66.3704L83.1062 66.604L83.4686 68.7935L83.102 68.56ZM83.8115 69.0403L83.4687 68.7937L83.1063 66.6042L83.4491 66.8507L83.449 66.8506L83.7679 67.1097L83.768 67.1098L84.0619 67.3806L84.4243 69.5702L84.13 69.2995L84.13 69.2994L83.8115 69.0402L83.8115 69.0403ZM84.4243 69.5701L84.6934 69.852L84.3313 67.6622L84.062 67.3806L84.4243 69.5701ZM84.6936 69.8521L84.9376 70.1436L84.9377 70.1442L85.1564 70.4463L84.794 68.2564L84.5758 67.9553L84.5757 67.9546L84.3314 67.6623L84.6936 69.8521ZM85.3496 70.7571L85.3495 70.7569L85.1565 70.4463L84.7941 68.2563L84.9869 68.5672L84.987 68.5672L84.987 68.5674L85.1537 68.8865L85.5163 71.0762L85.3496 70.7571ZM85.4082 69.5475L85.2949 69.2141L85.2948 69.2135L85.1542 68.8867L85.5168 71.0765L85.6568 71.4029L85.6569 71.4033L85.7703 71.7359L85.7705 71.7371L85.8569 72.0771L85.4946 69.8876L85.4086 69.5499L85.4082 69.5475Z" fill="url(#paint3_linear_865_2508)"/>
<path d="M85.8575 72.077L85.9166 72.4226L85.5543 70.2331L85.4951 69.8875L85.8575 72.077Z" fill="#D82525"/>
<path d="M85.9165 72.4226L85.9479 72.7734L85.5856 70.5835L85.5542 70.2331L85.9165 72.4226Z" fill="#D82525"/>
<path d="M85.9474 72.7735L85.9506 73.128L85.5883 70.9385L85.585 70.5835L85.9474 72.7735Z" fill="#D82525"/>
<path d="M85.9512 73.1283L85.9262 73.4869L85.564 71.2971L85.5889 70.9388L85.9512 73.1283Z" fill="#D82525"/>
<path d="M85.9261 73.4868L85.8724 73.848L85.5102 71.6583L85.564 71.297L85.9261 73.4868Z" fill="#D82525"/>
<path d="M85.8719 73.8479L85.7892 74.2112L85.4269 72.0216L85.5098 71.6581L85.8719 73.8479Z" fill="#D82525"/>
<path d="M85.7896 74.2111L85.6774 74.5761L85.3151 72.3866L85.4272 72.0216L85.7896 74.2111Z" fill="#D82525"/>
<path d="M85.6773 74.5763L85.5356 74.9421L85.1732 72.7526L85.3149 72.3867L85.6773 74.5763Z" fill="#D82525"/>
<path d="M85.5352 74.9419L85.3632 75.3077L85.0011 73.118L85.1729 72.7523L85.5352 74.9419Z" fill="#D82525"/>
<path d="M85.3636 75.308L85.1616 75.6735L84.7994 73.4838L85.0015 73.1182L85.3636 75.308Z" fill="#D82525"/>
<path d="M85.1615 75.6736L84.9288 76.0377L84.5666 73.848L84.7993 73.4839L85.1615 75.6736Z" fill="#D82525"/>
<path d="M84.9286 76.0377L84.6647 76.4L84.3026 74.2102L84.5664 73.8479L84.9286 76.0377Z" fill="#D82525"/>
<path d="M84.6654 76.4001L84.3743 76.7552L84.012 74.5656L84.3033 74.2103L84.6654 76.4001Z" fill="#D82525"/>
<path d="M84.3739 76.755L84.0595 77.0983L83.6973 74.9085L84.0116 74.5655L84.3739 76.755Z" fill="#D82525"/>
<path d="M84.0591 77.0984L83.7225 77.4292L83.3603 75.2395L83.697 74.9086L84.0591 77.0984Z" fill="#D82525"/>
<path d="M83.7226 77.429L83.3654 77.7472L83.0031 75.5577L83.3605 75.2392L83.7226 77.429Z" fill="#D82525"/>
<path d="M83.3653 77.7474L82.9879 78.0525L82.6256 75.863L83.003 75.5578L83.3653 77.7474Z" fill="#D82525"/>
<path d="M82.9879 78.0524L82.5917 78.3445L82.2295 76.1547L82.6255 75.8628L82.9879 78.0524Z" fill="#D82525"/>
<path d="M82.5917 78.3446L82.1781 78.6229L81.8158 76.4333L82.2295 76.1548L82.5917 78.3446Z" fill="#D82525"/>
<path d="M82.1783 78.623L81.748 78.8876L81.3857 76.698L81.816 76.4335L82.1783 78.623Z" fill="#D82525"/>
<path d="M81.7478 78.8875L81.3018 79.1378L80.9396 76.948L81.3854 76.698L81.7478 78.8875Z" fill="#D82525"/>
<path d="M81.3019 79.1377L80.842 79.3736L80.4798 77.1838L80.9398 76.948L81.3019 79.1377Z" fill="#D82525"/>
<path d="M80.8426 79.3735L80.369 79.5944L80.0068 77.4046L80.4804 77.1837L80.8426 79.3735Z" fill="#D82525"/>
<path d="M80.3687 79.5944L79.883 79.8002L79.5209 77.6104L80.0065 77.4047L80.3687 79.5944Z" fill="#D82525"/>
<path d="M79.8826 79.8L79.3859 79.9902L79.0237 77.8005L79.5204 77.6102L79.8826 79.8Z" fill="#D82525"/>
<path d="M79.386 79.9906L78.8791 80.1648L78.5169 77.9751L79.0238 77.8008L79.386 79.9906Z" fill="#D82525"/>
<path d="M78.8795 80.1648L78.3639 80.3233L78.0018 78.1336L78.5173 77.9751L78.8795 80.1648Z" fill="#D82525"/>
<path d="M78.3637 80.3233L77.8403 80.4651L77.4781 78.2753L78.0015 78.1335L78.3637 80.3233Z" fill="#D82525"/>
<path d="M77.8404 80.4651L77.3101 80.5902L76.9479 78.4005L77.4782 78.2753L77.8404 80.4651Z" fill="#D82525"/>
<path d="M77.3098 80.5903L76.774 80.698L76.4116 78.5085L76.9476 78.4005L77.3098 80.5903Z" fill="#D82525"/>
<path d="M76.7746 80.698L76.2343 80.7888L75.872 78.5993L76.4122 78.5085L76.7746 80.698Z" fill="#D82525"/>
<path d="M76.2338 80.7886L75.6898 80.8616L75.3276 78.6718L75.8714 78.5991L76.2338 80.7886Z" fill="#D82525"/>
<path d="M75.6899 80.8618L75.1439 80.9167L74.7815 78.7271L75.3278 78.672L75.6899 80.8618Z" fill="#D82525"/>
<path d="M75.1438 80.9166L74.5964 80.9533L74.2339 78.7636L74.7814 78.7271L75.1438 80.9166Z" fill="#D82525"/>
<path d="M74.5963 80.9533L74.0486 80.9711L73.6862 78.7816L74.2337 78.7636L74.5963 80.9533Z" fill="#D82525"/>
<path d="M74.0486 80.9712L73.502 80.9702L73.1396 78.7806L73.6862 78.7817L74.0486 80.9712Z" fill="#D82525"/>
<path d="M73.5019 80.97L72.9573 80.9498L72.5952 78.76L73.1396 78.7805L73.5019 80.97Z" fill="#D82525"/>
<path d="M72.9575 80.9499L72.416 80.9101L72.0538 78.7203L72.5953 78.7601L72.9575 80.9499Z" fill="#D82525"/>
<path d="M72.4162 80.9102L71.879 80.8503L71.5168 78.6605L72.0541 78.7204L72.4162 80.9102Z" fill="#D82525"/>
<path d="M71.8792 80.8503L71.3474 80.7702L70.985 78.5806L71.517 78.6605L71.8792 80.8503Z" fill="#D82525"/>
<path d="M71.3467 80.7702L70.8214 80.6698L70.459 78.4799L70.9844 78.5806L71.3467 80.7702Z" fill="#D82525"/>
<path d="M70.8218 80.6697L70.3038 80.5481L69.9415 78.3585L70.4594 78.4798L70.8218 80.6697Z" fill="#D82525"/>
<path d="M70.3039 80.5479L69.9419 78.3579L69.9415 78.3584L70.3039 80.5479Z" fill="#D82525"/>
<path d="M70.3041 80.5478L57.8992 77.3609L57.5369 75.1714L69.9419 78.3581L70.3041 80.5478Z" fill="#D82525"/>
<path d="M78.5977 72.2287L75.2258 76.5876L74.8635 74.3981L78.2354 70.0391L78.5977 72.2287Z" fill="#5965D1"/>
<path d="M62.8209 73.4008L66.1929 69.0416L65.8306 66.8521L62.4587 71.211L62.8209 73.4008Z" fill="#D82525"/>
<path d="M66.1929 69.0417L78.5977 72.2286L78.2354 70.039L65.8305 66.8521L66.1929 69.0417Z" fill="#5965D1"/>
<path d="M88.7137 59.1515L92.0855 54.7925L91.7231 52.6026L88.3513 56.9615L88.7137 59.1515Z" fill="#5965D1"/>
<path d="M92.0855 54.7927L79.6805 51.6056L79.3183 49.4158L91.7231 52.6027L92.0855 54.7927Z" fill="#5965D1"/>
<path d="M79.6805 51.6056L76.3087 55.9645L75.9465 53.7747L79.3184 49.4158L79.6805 51.6056Z" fill="#D82525"/>
<path d="M55.744 58.519L55.3047 59.1228L54.9421 56.9331L55.3818 56.3292L55.744 58.519Z" fill="#D82525"/>
<path d="M55.305 59.1229L54.9169 59.7299L54.5547 57.5401L54.9424 56.9332L55.305 59.1229Z" fill="#D82525"/>
<path d="M54.9169 59.7298L54.5799 60.3386L54.2177 58.1489L54.5547 57.54L54.9169 59.7298Z" fill="#D82525"/>
<path d="M54.5799 60.3389L54.2937 60.9487L53.9314 58.7591L54.2178 58.1491L54.5799 60.3389Z" fill="#D82525"/>
<path d="M54.2935 60.9485L54.0571 61.5581L53.6948 59.3686L53.9312 58.759L54.2935 60.9485Z" fill="#D82525"/>
<path d="M54.0572 61.5581L53.8703 62.1665L53.5081 59.9768L53.6948 59.3685L54.0572 61.5581Z" fill="#D82525"/>
<path d="M53.8705 62.1668L53.7326 62.7722L53.3703 60.5827L53.5083 59.977L53.8705 62.1668Z" fill="#D82525"/>
<path d="M53.7329 62.7722L53.6433 63.3745L53.2811 61.1847L53.3706 60.5827L53.7329 62.7722Z" fill="#D82525"/>
<path d="M53.6429 63.3744L53.6012 63.9717L53.239 61.7819L53.2808 61.1846L53.6429 63.3744Z" fill="#D82525"/>
<path d="M53.6009 63.9718L53.6066 64.5631L53.2443 62.3735L53.2388 61.782L53.6009 63.9718Z" fill="#D82525"/>
<path d="M53.607 64.5631L53.6593 65.1474L53.297 62.9578L53.2446 62.3736L53.607 64.5631Z" fill="#D82525"/>
<path d="M53.6587 65.1472L53.7572 65.7233L53.3949 63.5338L53.2964 62.9577L53.6587 65.1472Z" fill="#D82525"/>
<path fill-rule="evenodd" clip-rule="evenodd" d="M62.8207 73.3999L62.8207 73.3999L62.8206 73.3998L61.9824 73.1651L61.9824 73.1652L61.1806 72.9021L61.1805 72.902L60.416 72.6112L60.0537 70.4216L60.8185 70.7123L60.8185 70.7123L61.62 70.9756L61.62 70.9756L62.4581 71.2102L65.8299 66.8513L66.1925 69.041L64.1732 71.6514L74.8637 74.3979L75.2261 76.5874L62.821 73.4008L62.8209 73.3997L62.8207 73.3999L62.8207 73.3999L62.8207 73.3999ZM53.7288 64.657L53.5397 64.1012L53.5396 64.1006L53.3952 63.5338L53.7575 65.7234L53.9015 66.289L53.9017 66.2903L54.0906 66.8451L54.0908 66.8465L54.3249 67.3913L53.9626 65.2017L53.7289 64.6579L53.7288 64.657ZM54.3254 67.3916L54.6033 67.9236L54.2412 65.7339L53.963 65.2021L54.3254 67.3916ZM54.9251 68.4418L54.6036 67.9236L54.2414 65.7338L54.5628 66.2519L54.5628 66.2518L54.9273 66.755L54.9274 66.7556L55.3341 67.2421L55.3341 67.2419L55.7831 67.712L56.1454 69.9015L55.6964 69.4318L55.6964 69.432L55.2895 68.9449L55.2894 68.9443L54.9251 68.4417L54.9251 68.4418ZM56.6355 70.353L56.1455 69.9016L55.7831 67.7121L56.2734 68.1632L56.6355 70.353ZM57.1665 70.7845L56.6357 70.3531L56.2735 68.1633L56.8045 68.5952L56.8045 68.5953L57.3758 69.0062L57.7379 71.1959L57.1665 70.7846L57.1665 70.7845ZM57.7383 71.1961L58.3495 71.5853L58.3495 71.5852L58.9996 71.9516L58.9996 71.9519L59.6887 72.2943L59.6886 72.2941L60.4159 72.6112L60.0535 70.4217L59.3263 70.1046L59.3263 70.1047L58.6374 69.7624L58.6374 69.7621L57.9871 69.3957L57.9871 69.3957L57.3761 69.0064L57.7383 71.1961Z" fill="url(#paint4_linear_865_2508)"/>
<path d="M66.1925 69.0411L65.6894 68.9002L65.3273 66.7105L65.83 66.8514L66.1925 69.0411Z" fill="#D82525"/>
<path d="M65.6893 68.9002L65.2083 68.7421L64.846 66.5526L65.3272 66.7104L65.6893 68.9002Z" fill="#D82525"/>
<path d="M65.2085 68.7421L64.7496 68.5675L64.3873 66.378L64.8461 66.5525L65.2085 68.7421Z" fill="#D82525"/>
<path d="M64.7494 68.5676L64.3129 68.3775L63.9507 66.1877L64.3871 66.378L64.7494 68.5676Z" fill="#D82525"/>
<path d="M64.313 68.3775L63.8996 68.172L63.5375 65.9823L63.9508 66.1877L64.313 68.3775Z" fill="#D82525"/>
<path d="M63.9002 68.1721L63.5101 67.9522L63.1477 65.7627L63.538 65.9824L63.9002 68.1721Z" fill="#D82525"/>
<path d="M63.51 67.9519L63.1433 67.7183L62.781 65.5288L63.1477 65.7624L63.51 67.9519Z" fill="#D82525"/>
<path d="M63.1434 67.7187L62.8006 67.4721L62.4383 65.2826L62.7811 65.5291L63.1434 67.7187Z" fill="#D82525"/>
<path d="M62.8002 67.4719L62.4813 67.2128L62.1191 65.0231L62.4379 65.2824L62.8002 67.4719Z" fill="#D82525"/>
<path d="M62.4811 67.2127L62.187 66.9418L61.8247 64.7522L62.1189 65.0229L62.4811 67.2127Z" fill="#D82525"/>
<path d="M62.1876 66.9418L61.9183 66.6601L61.5562 64.4703L61.8252 64.7523L62.1876 66.9418Z" fill="#D82525"/>
<path d="M61.918 66.6603L61.6737 66.368L61.3115 64.1782L61.5558 64.4705L61.918 66.6603Z" fill="#D82525"/>
<path d="M61.6739 66.368L61.4553 66.0661L61.0928 63.8763L61.3117 64.1783L61.6739 66.368Z" fill="#D82525"/>
<path d="M61.4552 66.066L61.2621 65.7553L60.8999 63.5655L61.0926 63.8763L61.4552 66.066Z" fill="#D82525"/>
<path d="M61.262 65.7553L61.0953 65.436L60.7329 63.2465L60.8999 63.5655L61.262 65.7553Z" fill="#D82525"/>
<path d="M61.0955 65.436L60.9551 65.109L60.5928 62.9195L60.7332 63.2464L61.0955 65.436Z" fill="#D82525"/>
<path fill-rule="evenodd" clip-rule="evenodd" d="M77.6609 54.2153L79.6799 51.6054L79.3173 49.4156L75.9454 53.7746L76.2499 55.6135L76.308 55.9645L88.713 59.1516L88.3507 56.9616L77.6609 54.2153ZM60.8413 64.7753L60.955 65.109L60.6635 63.3477L60.6721 63.2256L60.7493 63.692L60.7458 63.3373L60.6897 62.9983L60.7394 62.6645L60.3768 60.4748L60.3231 60.836L60.3235 60.8383L60.2987 61.1945L60.5759 62.8705L60.479 62.5858L60.8413 64.7753ZM60.8412 64.7754L60.7547 64.4353L60.693 64.0629L60.6933 64.0655L60.7545 64.4354L60.6951 64.0896L60.333 61.8999L60.3425 61.9554L60.3333 61.8998L60.3019 61.5494L60.4634 62.5252L60.4788 62.5858L60.8412 64.7754ZM60.7399 62.6646L60.8224 62.3011L60.8222 62.3001L60.9341 61.9361L60.5718 59.7466L60.4598 60.1113L60.46 60.1125L60.3773 60.4749L60.7399 62.6646ZM60.9344 61.936L61.0763 61.5702L61.0762 61.57L61.2478 61.2044L60.8855 59.0149L60.7137 59.3809L60.7138 59.3811L60.572 59.7464L60.9344 61.936ZM61.2481 61.2046L61.4503 60.8394L61.4502 60.8388L61.6828 60.4748L61.6828 60.4747L61.9464 60.1128L61.584 57.9228L61.3204 58.2853L61.3204 58.2855L61.0878 58.6494L61.0879 58.65L60.8858 59.015L61.2481 61.2046ZM62.2378 59.7573L61.9465 60.1126L61.5841 57.9227L61.8754 57.5678L62.2378 59.7573ZM62.238 59.7575L62.5524 59.4142L62.5524 59.4141L62.8886 59.0833L62.8886 59.0833L63.2462 58.765L63.2461 58.7649L63.6231 58.4598L63.2607 56.2702L62.8836 56.5756L62.8836 56.5757L62.5264 56.8935L62.5264 56.8935L62.19 57.2246L62.19 57.2248L61.8756 57.568L62.238 59.7575ZM63.6236 58.4599L64.0198 58.1678L64.0197 58.1674L64.4331 57.8896L64.4331 57.8897L64.8635 57.6252L64.5009 55.4354L64.0709 55.6997L64.0709 55.6995L63.6571 55.978L63.6572 55.9784L63.2613 56.2703L63.6236 58.4599ZM65.3094 57.3746L64.8637 57.6251L64.5011 55.4354L64.9471 55.1851L65.3094 57.3746ZM65.3096 57.3747L65.7698 57.139L65.7697 57.1386L66.2427 56.9177L65.8803 54.7282L65.4069 54.9492L65.407 54.9497L64.9472 55.1851L65.3096 57.3747ZM66.2433 56.9177L66.7292 56.7122L67.2254 56.5221L67.2254 56.522L67.732 56.3476L67.3697 54.1581L66.863 54.3325L66.863 54.3326L66.3666 54.5225L66.3662 54.5226L66.3662 54.5226L65.881 54.7282L66.2433 56.9177ZM68.2482 56.1892L67.7324 56.3475L67.3701 54.1579L67.8856 53.9997L67.8856 53.9996L68.409 53.8578L68.7714 56.0473L68.2482 56.189L68.2482 56.1892ZM69.3017 55.9224L68.7714 56.0475L68.4091 53.858L68.9392 53.7326L69.3017 55.9224ZM69.3018 55.9223L69.8374 55.8144L69.8374 55.8144L70.3777 55.7238L70.3777 55.7237L70.9213 55.6506L70.559 53.4611L70.0154 53.534L70.0154 53.534L69.4751 53.6246L69.4751 53.6247L68.9393 53.7326L69.3018 55.9223ZM71.4678 55.5958L70.9217 55.6507L70.5593 53.4611L71.1052 53.406L71.1052 53.4059L71.6526 53.3696L72.0149 55.5591L71.4677 55.5956L71.4678 55.5958ZM72.5627 55.5412L72.0152 55.5592L71.6529 53.3697L72.2004 53.3517L72.5627 55.5412ZM73.1092 55.5421L72.5628 55.541L72.2005 53.3515L72.7471 53.3525L72.7471 53.3526L73.2914 53.3729L73.6538 55.5624L73.1092 55.5421L73.1092 55.5421ZM73.654 55.5625L74.1953 55.6025L73.8332 53.4127L73.2917 53.3729L73.654 55.5625ZM74.7328 55.6624L74.1955 55.6025L73.8334 53.4127L74.3705 53.4726L74.3705 53.4723L74.9023 53.5525L75.2646 55.742L74.7327 55.6621L74.7328 55.6624ZM75.7901 55.8431L75.2647 55.7424L74.9024 53.5529L75.4276 53.6533L75.4275 53.6532L75.9453 53.7747L76.3078 55.9644L75.7901 55.8431L75.7901 55.8431Z" fill="url(#paint5_linear_865_2508)"/>
<path d="M79.6802 51.6054L78.8169 51.4029L78.4545 49.2133L79.3176 49.4157L79.6802 51.6054Z" fill="#D82525"/>
<path d="M78.8165 51.4027L77.9408 51.2351L77.5785 49.0455L78.4542 49.2131L78.8165 51.4027Z" fill="#D82525"/>
<path d="M77.941 51.2352L77.0546 51.1017L76.6922 48.9122L77.5787 49.0457L77.941 51.2352Z" fill="#D82525"/>
<path d="M77.0548 51.1016L76.1593 51.002L75.797 48.8124L76.6924 48.912L77.0548 51.1016Z" fill="#D82525"/>
<path d="M76.1588 51.0022L75.2565 50.9356L74.8941 48.7461L75.7965 48.8127L76.1588 51.0022Z" fill="#D82525"/>
<path d="M75.2571 50.9356L74.3495 50.9018L73.9871 48.7122L74.8948 48.746L75.2571 50.9356Z" fill="#D82525"/>
<path d="M74.3496 50.9018L73.4386 50.9001L73.0763 48.7106L73.9872 48.7123L74.3496 50.9018Z" fill="#D82525"/>
<path d="M73.438 50.9L72.5253 50.9299L72.1629 48.7403L73.0756 48.7105L73.438 50.9Z" fill="#D82525"/>
<path d="M72.5257 50.9299L71.6133 50.991L71.2511 48.8012L72.1633 48.7404L72.5257 50.9299Z" fill="#D82525"/>
<path d="M71.6133 50.991L70.7031 51.0827L70.341 48.8929L71.2511 48.8012L71.6133 50.991Z" fill="#D82525"/>
<path d="M70.7031 51.0827L69.7967 51.204L69.4343 49.0144L70.3409 48.8929L70.7031 51.0827Z" fill="#D82525"/>
<path d="M69.7965 51.2041L68.8958 51.3553L68.5336 49.1656L69.4342 49.0145L69.7965 51.2041Z" fill="#D82525"/>
<path d="M68.8958 51.3553L68.0027 51.5354L67.6405 49.3456L68.5336 49.1655L68.8958 51.3553Z" fill="#D82525"/>
<path d="M68.0026 51.5355L67.119 51.7438L66.7567 49.5543L67.6404 49.3457L68.0026 51.5355Z" fill="#D82525"/>
<path d="M67.1189 51.7437L66.2464 51.9803L65.8841 49.7908L66.7566 49.5542L67.1189 51.7437Z" fill="#D82525"/>
<path d="M66.2466 51.9803L65.387 52.244L65.0247 50.0545L65.8842 49.7907L66.2466 51.9803Z" fill="#D82525"/>
<path d="M65.3868 52.2438L64.5422 52.5345L64.1798 50.3449L65.0244 50.0542L65.3868 52.2438Z" fill="#D82525"/>
<path d="M64.5424 52.5347L63.7144 52.8517L63.352 50.6622L64.1801 50.3452L64.5424 52.5347Z" fill="#D82525"/>
<path d="M63.714 52.8516L62.9047 53.1944L62.5423 51.0049L63.3517 50.6621L63.714 52.8516Z" fill="#D82525"/>
<path d="M62.9049 53.1945L62.1157 53.5627L61.7534 51.3732L62.5426 51.0049L62.9049 53.1945Z" fill="#D82525"/>
<path d="M62.1159 53.5628L61.349 53.9556L60.9867 51.7661L61.7536 51.3733L62.1159 53.5628Z" fill="#D82525"/>
<path d="M61.349 53.9555L60.6059 54.3726L60.2436 52.1831L60.9866 51.7659L61.349 53.9555Z" fill="#D82525"/>
<path d="M60.606 54.3728L59.8887 54.8139L59.5265 52.6241L60.2436 52.1833L60.606 54.3728Z" fill="#D82525"/>
<path d="M59.8888 54.8138L59.1993 55.2778L58.8371 53.088L59.5266 52.624L59.8888 54.8138Z" fill="#D82525"/>
<path d="M59.1989 55.2777L58.5387 55.7643L58.1765 53.5745L58.8367 53.0879L59.1989 55.2777Z" fill="#D82525"/>
<path d="M58.5386 55.7643L57.9098 56.2731L57.5477 54.0833L58.1764 53.5745L58.5386 55.7643Z" fill="#D82525"/>
<path d="M57.9099 56.2732L57.3141 56.8035L56.9518 54.614L57.5477 54.0834L57.9099 56.2732Z" fill="#D82525"/>
<path d="M57.3144 56.8035L56.7537 57.3551L56.3915 55.1653L56.952 54.614L57.3144 56.8035Z" fill="#D82525"/>
<path d="M56.7537 57.3551L56.2298 57.9271L55.8672 55.7374L56.3915 55.1654L56.7537 57.3551Z" fill="#D82525"/>
<path d="M56.2298 57.9272L55.7441 58.5193L55.3819 56.3295L55.8672 55.7375L56.2298 57.9272Z" fill="#D82525"/>
<path d="M67.6515 62.0942L71.0234 57.7353L83.4282 60.9222L80.0564 65.2811L67.6515 62.0942ZM57.5365 75.1714L54.1646 79.5303L66.5692 82.717C75.1332 84.9169 85.8494 81.8219 90.5049 75.8035C95.1605 69.7851 91.9922 63.1225 83.4283 60.9226L80.0564 65.2815C85.1947 66.6016 87.0958 70.599 84.3024 74.2102C81.5091 77.8213 75.0795 79.6784 69.9411 78.3585L69.9415 78.3581L57.5365 75.1714ZM78.2351 70.039L74.8633 74.398L62.4584 71.211L65.8303 66.8521L78.2351 70.039ZM88.3508 56.9616L91.7226 52.6027L79.3178 49.4158L75.946 53.7747L88.3508 56.9616ZM55.3817 56.3293C50.7262 62.3477 53.8944 69.0103 62.4579 71.2103L65.8298 66.8514C60.6915 65.5313 58.7908 61.5338 61.5842 57.9227C64.3775 54.3116 70.8071 52.4545 75.9453 53.7746L79.3172 49.4156C70.7536 47.2157 60.0372 50.311 55.3817 56.3293Z" fill="white"/>
</g>
<defs>
<linearGradient id="paint0_linear_865_2508" x1="118.591" y1="84.5034" x2="35.1239" y2="96.1453" gradientUnits="userSpaceOnUse">
<stop offset="0.359375" stop-color="#7F90EF"/>
<stop offset="1" stop-color="#27368B"/>
</linearGradient>
<linearGradient id="paint1_linear_865_2508" x1="34.1487" y1="57.192" x2="114.986" y2="77.9932" gradientUnits="userSpaceOnUse">
<stop stop-color="#5065E4"/>
<stop offset="1" stop-color="#B9C2F4"/>
</linearGradient>
<linearGradient id="paint2_linear_865_2508" x1="92.214" y1="74.6007" x2="66.5247" y2="59.0914" gradientUnits="userSpaceOnUse">
<stop stop-color="#8798F4"/>
<stop offset="1" stop-color="#28368C"/>
</linearGradient>
<linearGradient id="paint3_linear_865_2508" x1="88.6131" y1="67.3079" x2="69.0668" y2="58.455" gradientUnits="userSpaceOnUse">
<stop stop-color="#8798F4"/>
<stop offset="1" stop-color="#28368C"/>
</linearGradient>
<linearGradient id="paint4_linear_865_2508" x1="74.9019" y1="75.5212" x2="50.7094" y2="69.0709" gradientUnits="userSpaceOnUse">
<stop stop-color="#8798F4"/>
<stop offset="1" stop-color="#28368C"/>
</linearGradient>
<linearGradient id="paint5_linear_865_2508" x1="87.0273" y1="60.0247" x2="66.5673" y2="48.1004" gradientUnits="userSpaceOnUse">
<stop stop-color="#8798F4"/>
<stop offset="1" stop-color="#28368C"/>
</linearGradient>
</defs>
</svg>
