<svg width="300" height="40" viewBox="0 0 300 40" fill="none" xmlns="http://www.w3.org/2000/svg">
<circle cx="16" cy="20" r="16" fill="url(#paint0_linear_73_123)"/>
<path fill-rule="evenodd" clip-rule="evenodd" d="M13.1295 21.1019L11.3618 19.3341L14.8973 15.7986L14.8974 15.7987C17.3381 13.3579 21.2954 13.3579 23.7362 15.7987C26.177 18.2395 26.177 22.1967 23.7362 24.6375L23.7361 24.6374L20.2006 28.1729L18.4328 26.4052L21.9683 22.8696L21.9685 22.8698C23.4329 21.4053 23.4329 19.031 21.9684 17.5665C20.504 16.102 18.1296 16.102 16.6651 17.5665L16.6651 17.5664L13.1295 21.1019ZM13.5716 13.5889L11.8038 11.8212L8.26831 15.3567L10.0361 17.1245L13.5716 13.5889ZM8.2683 24.1956C10.7091 26.6364 14.6664 26.6364 17.1071 24.1956L15.3394 22.4278L15.3394 22.4278C13.8749 23.8923 11.5005 23.8923 10.0361 22.4278C8.5716 20.9634 8.5716 18.589 10.0361 17.1245L10.0361 17.1245L8.2683 15.3567C5.82752 17.7975 5.82752 21.7548 8.2683 24.1956ZM18.8749 18.8923L20.6427 20.66L17.1072 24.1956L15.3394 22.4278L18.8749 18.8923Z" fill="white"/>
<path d="M41.056 26V14.8H44.976L46.912 24.56H47.2L49.136 14.8H53.056V26H51.008V16.352H50.72L48.8 26H45.312L43.392 16.352H43.104V26H41.056ZM57.6934 26.224C57.128 26.224 56.6214 26.128 56.1734 25.936C55.7254 25.7333 55.368 25.4453 55.1014 25.072C54.8454 24.688 54.7174 24.224 54.7174 23.68C54.7174 23.136 54.8454 22.6827 55.1014 22.32C55.368 21.9467 55.7307 21.6693 56.1894 21.488C56.6587 21.296 57.192 21.2 57.7894 21.2H59.9654V20.752C59.9654 20.3787 59.848 20.0747 59.6134 19.84C59.3787 19.5947 59.0054 19.472 58.4934 19.472C57.992 19.472 57.6187 19.5893 57.3734 19.824C57.128 20.048 56.968 20.3413 56.8934 20.704L55.0374 20.08C55.1654 19.6747 55.368 19.3067 55.6454 18.976C55.9334 18.6347 56.312 18.3627 56.7814 18.16C57.2614 17.9467 57.8427 17.84 58.5254 17.84C59.5707 17.84 60.3974 18.1013 61.0054 18.624C61.6134 19.1467 61.9174 19.904 61.9174 20.896V23.856C61.9174 24.176 62.0667 24.336 62.3654 24.336H63.0054V26H61.6614C61.2667 26 60.9414 25.904 60.6854 25.712C60.4294 25.52 60.3014 25.264 60.3014 24.944V24.928H59.9974C59.9547 25.056 59.8587 25.2267 59.7094 25.44C59.56 25.6427 59.3254 25.824 59.0054 25.984C58.6854 26.144 58.248 26.224 57.6934 26.224ZM58.0454 24.592C58.6107 24.592 59.0694 24.4373 59.4214 24.128C59.784 23.808 59.9654 23.3867 59.9654 22.864V22.704H57.9334C57.56 22.704 57.2667 22.784 57.0534 22.944C56.84 23.104 56.7334 23.328 56.7334 23.616C56.7334 23.904 56.8454 24.1387 57.0694 24.32C57.2934 24.5013 57.6187 24.592 58.0454 24.592ZM66.9413 26C66.4186 26 65.9919 25.84 65.6613 25.52C65.3413 25.1893 65.1813 24.752 65.1813 24.208V19.728H63.1973V18.064H65.1813V15.6H67.1973V18.064H69.3733V19.728H67.1973V23.856C67.1973 24.176 67.3466 24.336 67.6453 24.336H69.1813V26H66.9413ZM74.6449 26.224C73.8769 26.224 73.1782 26.064 72.5489 25.744C71.9302 25.424 71.4395 24.96 71.0769 24.352C70.7142 23.744 70.5329 23.008 70.5329 22.144V21.92C70.5329 21.056 70.7142 20.32 71.0769 19.712C71.4395 19.104 71.9302 18.64 72.5489 18.32C73.1782 18 73.8769 17.84 74.6449 17.84C75.4022 17.84 76.0529 17.9733 76.5969 18.24C77.1409 18.5067 77.5782 18.8747 77.9089 19.344C78.2502 19.8027 78.4742 20.3253 78.5809 20.912L76.6289 21.328C76.5862 21.008 76.4902 20.72 76.3409 20.464C76.1915 20.208 75.9782 20.0053 75.7009 19.856C75.4342 19.7067 75.0982 19.632 74.6929 19.632C74.2875 19.632 73.9195 19.7227 73.5889 19.904C73.2689 20.0747 73.0129 20.336 72.8209 20.688C72.6395 21.0293 72.5489 21.4507 72.5489 21.952V22.112C72.5489 22.6133 72.6395 23.04 72.8209 23.392C73.0129 23.7333 73.2689 23.9947 73.5889 24.176C73.9195 24.3467 74.2875 24.432 74.6929 24.432C75.3009 24.432 75.7595 24.2773 76.0689 23.968C76.3889 23.648 76.5915 23.232 76.6769 22.72L78.6289 23.184C78.4902 23.7493 78.2502 24.2667 77.9089 24.736C77.5782 25.1947 77.1409 25.5573 76.5969 25.824C76.0529 26.0907 75.4022 26.224 74.6449 26.224ZM80.2919 26V14.8H82.3079V19.04H82.5959C82.6812 18.8693 82.8145 18.6987 82.9959 18.528C83.1772 18.3573 83.4172 18.2187 83.7159 18.112C84.0252 17.9947 84.4145 17.936 84.8839 17.936C85.5025 17.936 86.0412 18.08 86.4999 18.368C86.9692 18.6453 87.3319 19.0347 87.5879 19.536C87.8439 20.0267 87.9719 20.6027 87.9719 21.264V26H85.9559V21.424C85.9559 20.8267 85.8065 20.3787 85.5079 20.08C85.2199 19.7813 84.8039 19.632 84.2599 19.632C83.6412 19.632 83.1612 19.84 82.8199 20.256C82.4785 20.6613 82.3079 21.232 82.3079 21.968V26H80.2919ZM94.1497 26V14.8H101.19V16.72H96.2618V19.424H100.806V21.344H96.2618V26H94.1497ZM102.761 26V18.064H104.777V26H102.761ZM103.769 17.136C103.406 17.136 103.097 17.0187 102.841 16.784C102.595 16.5493 102.473 16.24 102.473 15.856C102.473 15.472 102.595 15.1627 102.841 14.928C103.097 14.6933 103.406 14.576 103.769 14.576C104.142 14.576 104.451 14.6933 104.697 14.928C104.942 15.1627 105.065 15.472 105.065 15.856C105.065 16.24 104.942 16.5493 104.697 16.784C104.451 17.0187 104.142 17.136 103.769 17.136ZM107.011 26V18.064H108.995V19.104H109.283C109.411 18.8267 109.651 18.5653 110.003 18.32C110.355 18.064 110.888 17.936 111.603 17.936C112.221 17.936 112.76 18.08 113.219 18.368C113.688 18.6453 114.051 19.0347 114.307 19.536C114.563 20.0267 114.691 20.6027 114.691 21.264V26H112.675V21.424C112.675 20.8267 112.525 20.3787 112.227 20.08C111.939 19.7813 111.523 19.632 110.979 19.632C110.36 19.632 109.88 19.84 109.539 20.256C109.197 20.6613 109.027 21.232 109.027 21.968V26H107.011ZM119.334 26.224C118.769 26.224 118.262 26.128 117.814 25.936C117.366 25.7333 117.009 25.4453 116.742 25.072C116.486 24.688 116.358 24.224 116.358 23.68C116.358 23.136 116.486 22.6827 116.742 22.32C117.009 21.9467 117.371 21.6693 117.83 21.488C118.299 21.296 118.833 21.2 119.43 21.2H121.606V20.752C121.606 20.3787 121.489 20.0747 121.254 19.84C121.019 19.5947 120.646 19.472 120.134 19.472C119.633 19.472 119.259 19.5893 119.014 19.824C118.769 20.048 118.609 20.3413 118.534 20.704L116.678 20.08C116.806 19.6747 117.009 19.3067 117.286 18.976C117.574 18.6347 117.953 18.3627 118.422 18.16C118.902 17.9467 119.483 17.84 120.166 17.84C121.211 17.84 122.038 18.1013 122.646 18.624C123.254 19.1467 123.558 19.904 123.558 20.896V23.856C123.558 24.176 123.707 24.336 124.006 24.336H124.646V26H123.302C122.907 26 122.582 25.904 122.326 25.712C122.07 25.52 121.942 25.264 121.942 24.944V24.928H121.638C121.595 25.056 121.499 25.2267 121.35 25.44C121.201 25.6427 120.966 25.824 120.646 25.984C120.326 26.144 119.889 26.224 119.334 26.224ZM119.686 24.592C120.251 24.592 120.71 24.4373 121.062 24.128C121.425 23.808 121.606 23.3867 121.606 22.864V22.704H119.574C119.201 22.704 118.907 22.784 118.694 22.944C118.481 23.104 118.374 23.328 118.374 23.616C118.374 23.904 118.486 24.1387 118.71 24.32C118.934 24.5013 119.259 24.592 119.686 24.592ZM126.12 26V18.064H128.104V19.104H128.392C128.52 18.8267 128.76 18.5653 129.112 18.32C129.464 18.064 129.997 17.936 130.712 17.936C131.331 17.936 131.869 18.08 132.328 18.368C132.797 18.6453 133.16 19.0347 133.416 19.536C133.672 20.0267 133.8 20.6027 133.8 21.264V26H131.784V21.424C131.784 20.8267 131.635 20.3787 131.336 20.08C131.048 19.7813 130.632 19.632 130.088 19.632C129.469 19.632 128.989 19.84 128.648 20.256C128.307 20.6613 128.136 21.232 128.136 21.968V26H126.12ZM139.707 26.224C138.939 26.224 138.241 26.064 137.611 25.744C136.993 25.424 136.502 24.96 136.139 24.352C135.777 23.744 135.595 23.008 135.595 22.144V21.92C135.595 21.056 135.777 20.32 136.139 19.712C136.502 19.104 136.993 18.64 137.611 18.32C138.241 18 138.939 17.84 139.707 17.84C140.465 17.84 141.115 17.9733 141.659 18.24C142.203 18.5067 142.641 18.8747 142.971 19.344C143.313 19.8027 143.537 20.3253 143.643 20.912L141.691 21.328C141.649 21.008 141.553 20.72 141.403 20.464C141.254 20.208 141.041 20.0053 140.763 19.856C140.497 19.7067 140.161 19.632 139.755 19.632C139.35 19.632 138.982 19.7227 138.651 19.904C138.331 20.0747 138.075 20.336 137.883 20.688C137.702 21.0293 137.611 21.4507 137.611 21.952V22.112C137.611 22.6133 137.702 23.04 137.883 23.392C138.075 23.7333 138.331 23.9947 138.651 24.176C138.982 24.3467 139.35 24.432 139.755 24.432C140.363 24.432 140.822 24.2773 141.131 23.968C141.451 23.648 141.654 23.232 141.739 22.72L143.691 23.184C143.553 23.7493 143.313 24.2667 142.971 24.736C142.641 25.1947 142.203 25.5573 141.659 25.824C141.115 26.0907 140.465 26.224 139.707 26.224ZM148.97 26.224C148.181 26.224 147.482 26.0587 146.874 25.728C146.277 25.3867 145.808 24.912 145.466 24.304C145.136 23.6853 144.97 22.96 144.97 22.128V21.936C144.97 21.104 145.136 20.384 145.466 19.776C145.797 19.1573 146.261 18.6827 146.858 18.352C147.456 18.0107 148.149 17.84 148.938 17.84C149.717 17.84 150.394 18.016 150.97 18.368C151.546 18.7093 151.994 19.1893 152.314 19.808C152.634 20.416 152.794 21.1253 152.794 21.936V22.624H147.018C147.04 23.168 147.242 23.6107 147.626 23.952C148.01 24.2933 148.48 24.464 149.034 24.464C149.6 24.464 150.016 24.3413 150.282 24.096C150.549 23.8507 150.752 23.5787 150.89 23.28L152.538 24.144C152.389 24.4213 152.17 24.7253 151.882 25.056C151.605 25.376 151.232 25.6533 150.762 25.888C150.293 26.112 149.696 26.224 148.97 26.224ZM147.034 21.12H150.746C150.704 20.6613 150.517 20.2933 150.186 20.016C149.866 19.7387 149.445 19.6 148.922 19.6C148.378 19.6 147.946 19.7387 147.626 20.016C147.306 20.2933 147.109 20.6613 147.034 21.12Z" fill="black"/>
<defs>
<linearGradient id="paint0_linear_73_123" x1="5.125" y1="7.875" x2="27.1875" y2="31.75" gradientUnits="userSpaceOnUse">
<stop stop-color="#B9C2F4"/>
<stop offset="1" stop-color="#5065E4"/>
</linearGradient>
</defs>
</svg>
