<svg width="33" height="33" viewBox="0 0 33 33" fill="none" xmlns="http://www.w3.org/2000/svg">
<path d="M19.6383 21.3824L9.89967 23.9115C9.11316 24.1123 8.28577 23.9684 7.59561 23.5109C6.90546 23.0534 6.40775 22.3188 6.20964 21.4653L4.07931 11.5978C3.6989 9.81506 4.72602 8.03228 6.32376 7.61768L16.0624 5.08861C17.6982 4.67401 19.334 5.75197 19.7524 7.53476L21.9208 17.3608C22.3012 19.1436 21.2741 20.9264 19.6383 21.3824Z" fill="#DCE0FA"/>
<path d="M22.6736 28H9.3264C7.49688 28 6 26.5333 6 24.7407V9.25926C6 7.46667 7.49688 6 9.3264 6H22.6736C24.5031 6 26 7.46667 26 9.25926V24.7407C26 26.5333 24.5031 28 22.6736 28Z" fill="#5065E4"/>
<path d="M28.4808 17.7823L27.7072 17.0736C27.3926 16.7728 26.8565 16.8007 26.5954 17.1223L25.8867 17.8959C25.7865 18.0008 25.7981 18.1663 25.903 18.2665L27.4969 19.6513C27.6017 19.7515 27.7672 19.7399 27.8675 19.6351L28.5762 18.8614C28.8699 18.5865 28.842 18.0504 28.4808 17.7823ZM20.6879 23.964L22.2422 25.3418C22.347 25.442 22.5125 25.4304 22.6524 25.3326L27.1447 20.488C27.245 20.3831 27.2334 20.2176 27.1355 20.0777L25.5812 18.6999C25.4764 18.5997 25.3109 18.6113 25.171 18.7092L20.6716 23.5934C20.5318 23.6913 20.5434 23.8568 20.6879 23.964ZM19.6664 26.9704L21.6593 26.0968C21.8388 26.006 21.8808 25.7683 21.7433 25.6214L20.3591 24.4371C20.2147 24.3298 19.9629 24.3671 19.8883 24.5582L19.2329 26.6487C19.2375 26.8538 19.4403 27.0939 19.6664 26.9704Z" fill="#DCE0FA"/>
<path d="M19.8506 8H12.1494C11.5364 8 11 7.44 11 6.8V5.2C11 4.52 11.5364 4 12.1494 4H19.8506C20.5019 4 21 4.52 21 5.2V6.8C21 7.44 20.4636 8 19.8506 8Z" fill="#DCE0FA"/>
<path d="M22.3646 14.5356H16.7514C16.3536 14.5356 16 14.2734 16 13.8989V13.6367C16 13.2996 16.3094 13 16.7514 13H22.3646C22.7624 13 23.116 13.2996 23.116 13.6367V13.8989C23.116 14.236 22.7624 14.5356 22.3646 14.5356ZM23.2486 18.7678H16.7514C16.3536 18.7678 16 18.4682 16 18.1311V17.8689C16 17.5318 16.3094 17.2322 16.7514 17.2322H23.2486C23.6464 17.2322 24 17.5318 24 17.8689V18.1311C24 18.4682 23.6906 18.7678 23.2486 18.7678ZM20.5967 23H16.7514C16.3536 23 16 22.7004 16 22.3633V22.1011C16 21.764 16.3094 21.4644 16.7514 21.4644H20.5967C20.9945 21.4644 21.3481 21.764 21.3481 22.1011V22.3633C21.3481 22.7004 20.9945 23 20.5967 23Z" fill="#DCE0FA"/>
<path d="M12.8723 13.1922L10.7894 15.3158L10.1835 14.6934C9.91838 14.4371 9.46392 14.4371 9.19882 14.6934C8.93373 14.9863 8.93373 15.4256 9.19882 15.6819L10.2592 16.7803C10.3728 16.9268 10.5622 17 10.7515 17C10.9409 17 11.1303 16.9268 11.2439 16.7803L13.7812 14.1808C14.0463 13.9245 14.0842 13.4485 13.8191 13.1922C13.5919 12.9359 13.1374 12.9359 12.8723 13.1922Z" fill="#DCE0FA"/>
</svg>
