<svg width="13" height="12" viewBox="0 0 13 12" fill="none" xmlns="http://www.w3.org/2000/svg">
<g clip-path="url(#clip0_1794_837)">
<path d="M0.851074 8.20667V9.08741C0.851074 10.6941 3.3807 12 6.49922 12C9.61774 12 12.1437 10.697 12.1474 9.08889V8.20667C11.0918 9.3637 8.98367 10.1385 6.49922 10.1385C4.01478 10.1385 1.90515 9.3637 0.851074 8.20667Z" fill="#5065E4"/>
<path d="M11.1407 6.42666C11.1259 6.43481 11.1103 6.44296 11.097 6.45111C10.9489 6.53851 10.7948 6.62074 10.6318 6.7C10.5511 6.73851 10.4651 6.77407 10.3814 6.81185C10.2622 6.8637 10.1407 6.91333 10.0111 6.95999C9.92367 6.99259 9.83626 7.02444 9.74589 7.05555C9.57774 7.11185 9.40515 7.16222 9.22737 7.20888C9.16737 7.22518 9.11107 7.24296 9.04959 7.25703C8.82737 7.31037 8.59996 7.35703 8.36737 7.39629C8.28663 7.41111 8.20441 7.42074 8.12144 7.43333C7.937 7.46074 7.75107 7.48148 7.5607 7.49925C7.47996 7.5074 7.39922 7.51555 7.31626 7.52C7.04811 7.53925 6.77626 7.55259 6.497 7.55259C6.21774 7.55259 5.94589 7.54 5.67774 7.52L5.4333 7.49925C5.24293 7.48148 5.057 7.45851 4.87256 7.43333C4.79033 7.42222 4.70737 7.41037 4.62515 7.39629C4.39404 7.35777 4.16589 7.31037 3.94811 7.25703C3.88515 7.24074 3.82515 7.22296 3.76367 7.20666C3.58737 7.15999 3.41478 7.10962 3.24515 7.05333C3.15478 7.02296 3.06737 6.99037 2.97996 6.95777C2.85404 6.91111 2.73256 6.86074 2.60959 6.80962C2.52589 6.77259 2.43996 6.73555 2.35922 6.69777C2.19774 6.6237 2.0407 6.53629 1.89404 6.44888L1.84885 6.42444C1.47977 6.205 1.14381 5.93413 0.851074 5.62V6.50222C0.859562 6.863 0.981652 7.2119 1.19996 7.49925L1.21922 7.52666C1.26921 7.59499 1.32261 7.66075 1.37922 7.7237C1.38572 7.73172 1.39264 7.73938 1.39996 7.74666C1.67401 8.03413 1.99144 8.27683 2.3407 8.46592C2.36663 8.48074 2.39107 8.49481 2.41478 8.50962C2.48885 8.55037 2.56811 8.58888 2.64885 8.6274C2.69107 8.64814 2.73478 8.66814 2.77848 8.6874C2.85256 8.72148 2.93033 8.75555 3.00811 8.78592C3.06314 8.80874 3.11871 8.83023 3.17478 8.85037C3.24885 8.87777 3.32293 8.90666 3.40144 8.93259C3.47996 8.95851 3.55478 8.98074 3.63256 9.00666C3.72293 9.03407 3.81552 9.06148 3.91033 9.0874C4.02219 9.11777 4.137 9.14592 4.2533 9.17333C4.31478 9.18592 4.37774 9.19925 4.43922 9.21037C4.53626 9.22962 4.63478 9.24888 4.73552 9.26666C4.79996 9.27777 4.86663 9.2874 4.93256 9.29703C5.03626 9.31185 5.13922 9.32592 5.24441 9.33925C5.30885 9.3474 5.37404 9.35407 5.43996 9.35999C5.55478 9.37111 5.67256 9.37925 5.79107 9.3874L5.9607 9.39851C6.137 9.40666 6.31478 9.41333 6.49404 9.41333C6.6733 9.41333 6.85107 9.40814 7.02737 9.39851L7.197 9.3874C7.31478 9.37925 7.43107 9.37111 7.54811 9.35999L7.74367 9.33925C7.84885 9.32666 7.95256 9.31333 8.05552 9.29703C8.12144 9.2874 8.18811 9.27777 8.25256 9.26666C8.35256 9.25037 8.45107 9.23111 8.54885 9.21037C8.61181 9.19777 8.67478 9.18592 8.73478 9.17333C8.85107 9.1474 8.96441 9.11851 9.07774 9.0874C9.17181 9.06148 9.26367 9.03555 9.35552 9.00666C9.42959 8.98222 9.51256 8.96 9.58663 8.93259C9.6607 8.90518 9.73848 8.87777 9.8133 8.85037C9.86959 8.82963 9.92515 8.80814 9.97996 8.78592C10.0592 8.75333 10.1348 8.72148 10.2096 8.6874C10.2533 8.66814 10.2955 8.64666 10.3392 8.6274C10.4185 8.58888 10.4977 8.55333 10.5733 8.50962L10.6474 8.46592C10.9966 8.27683 11.3141 8.03413 11.5881 7.74666L11.6111 7.72222C11.6677 7.65977 11.7211 7.59451 11.7711 7.52666C11.7777 7.51703 11.7837 7.5074 11.7903 7.49925C12.0084 7.21178 12.1305 6.86295 12.1392 6.50222V5.62148C11.8459 5.93821 11.5072 6.20957 11.134 6.42666H11.1407Z" fill="#5065E4"/>
<path d="M12.1451 2.91556C12.1451 1.30593 9.617 0 6.49774 0C3.37848 0 0.851074 1.30593 0.851074 2.91556V3.92C0.859348 4.28069 0.981176 4.62959 1.19922 4.91704L1.21848 4.94444C1.26847 5.01277 1.32187 5.07853 1.37848 5.14148C1.38498 5.1495 1.3919 5.15717 1.39922 5.16444C1.67326 5.45191 1.9907 5.69462 2.33996 5.8837L2.41404 5.92741C2.48811 5.96815 2.56737 6.00667 2.64811 6.04519C2.69033 6.06593 2.73182 6.08593 2.77552 6.10519C2.84959 6.13926 2.92737 6.17333 3.00663 6.20519C3.05996 6.22815 3.11626 6.24741 3.17181 6.26815C3.24589 6.29704 3.31996 6.32444 3.39996 6.35185C3.47996 6.37926 3.55182 6.4 3.62959 6.42593C3.70737 6.45185 3.76885 6.46963 3.84144 6.48889H3.84959C3.87033 6.49556 3.8933 6.5 3.91552 6.50519C4.02515 6.53407 4.13774 6.5637 4.25182 6.58889C4.27626 6.59407 4.29996 6.6 4.32589 6.60519L4.37922 6.61481C4.39848 6.61481 4.41774 6.62148 4.43774 6.62593C4.53478 6.64519 4.6333 6.66444 4.73404 6.68222C4.76811 6.68889 4.79996 6.69481 4.83552 6.7L4.93404 6.71259C5.03552 6.72741 5.13922 6.74148 5.24293 6.75333L5.36737 6.76963C5.3933 6.76963 5.41922 6.76963 5.44144 6.7763C5.55478 6.78741 5.66959 6.79556 5.78589 6.8037C5.83107 6.8037 5.8733 6.81185 5.91848 6.81333C5.93254 6.81252 5.94664 6.81252 5.9607 6.81333C6.13552 6.82148 6.31181 6.82593 6.49107 6.82593C6.67033 6.82593 6.84663 6.82074 7.02144 6.81333C7.03551 6.81415 7.0496 6.81415 7.06367 6.81333C7.10885 6.81333 7.15107 6.80667 7.19626 6.8037C7.31256 6.79556 7.42737 6.78741 7.5407 6.7763C7.56663 6.7763 7.59256 6.7763 7.61478 6.76963L7.73922 6.75333C7.84293 6.74074 7.94589 6.72741 8.04811 6.71259L8.14663 6.7C8.1807 6.69481 8.21478 6.68741 8.24811 6.68222C8.34811 6.66593 8.44663 6.64667 8.54441 6.62593C8.56367 6.62593 8.58293 6.61926 8.6007 6.61481C8.61848 6.61037 8.63774 6.60815 8.657 6.6037C8.67626 6.59926 8.70515 6.59259 8.73107 6.58741C8.84589 6.56148 8.95774 6.53259 9.06737 6.5037C9.08811 6.49704 9.11256 6.49259 9.1333 6.48741H9.14145C9.21552 6.46815 9.28219 6.44518 9.3533 6.42444C9.42441 6.4037 9.50811 6.37778 9.58293 6.35037C9.65774 6.32296 9.73478 6.29556 9.81107 6.26667L9.97626 6.2037C10.0555 6.17111 10.1311 6.13778 10.2074 6.1037C10.2511 6.08444 10.2933 6.06296 10.3348 6.0437C10.414 6.00519 10.4933 5.96963 10.5689 5.92593C10.5963 5.91111 10.6207 5.89704 10.6429 5.88222C10.9922 5.69313 11.3096 5.45043 11.5837 5.16296L11.6066 5.13852C11.6632 5.07608 11.7166 5.01081 11.7666 4.94296C11.7733 4.93333 11.7792 4.9237 11.7859 4.91556C12.004 4.62808 12.126 4.27925 12.1348 3.91852V2.91556H12.1451Z" fill="#5065E4"/>
</g>
<defs>
<clipPath id="clip0_1794_837">
<rect width="12" height="12" fill="white" transform="translate(0.5)"/>
</clipPath>
</defs>
</svg>
